<svg width="88" height="82" viewBox="0 0 88 82" fill="none" xmlns="http://www.w3.org/2000/svg">
<path d="M60.9051 27.605H50.0151C48.5405 27.605 47.3451 28.8004 47.3451 30.275V41.165C47.3451 42.6396 48.5405 43.835 50.0151 43.835H60.9051C62.3797 43.835 63.5751 42.6396 63.5751 41.165V30.275C63.5751 28.8004 62.3797 27.605 60.9051 27.605Z" stroke="black" stroke-width="2.5" stroke-linecap="round" stroke-linejoin="round"/>
<path d="M37.985 27.605H27.095C25.6204 27.605 24.425 28.8004 24.425 30.275V41.165C24.425 42.6396 25.6204 43.835 27.095 43.835H37.985C39.4596 43.835 40.6551 42.6396 40.6551 41.165V30.275C40.6551 28.8004 39.4596 27.605 37.985 27.605Z" stroke="black" stroke-width="2.5" stroke-linecap="round" stroke-linejoin="round"/>
<path d="M60.9051 50.3651H50.0151C48.5405 50.3651 47.3451 51.5605 47.3451 53.0351V63.9251C47.3451 65.3997 48.5405 66.5951 50.0151 66.5951H60.9051C62.3797 66.5951 63.5751 65.3997 63.5751 63.9251V53.0351C63.5751 51.5605 62.3797 50.3651 60.9051 50.3651Z" stroke="black" stroke-width="2.5" stroke-linecap="round" stroke-linejoin="round"/>
<path d="M37.985 50.3651H27.095C25.6204 50.3651 24.425 51.5605 24.425 53.0351V63.9251C24.425 65.3997 25.6204 66.5951 27.095 66.5951H37.985C39.4596 66.5951 40.6551 65.3997 40.6551 63.9251V53.0351C40.6551 51.5605 39.4596 50.3651 37.985 50.3651Z" stroke="black" stroke-width="2.5" stroke-linecap="round" stroke-linejoin="round"/>
<path d="M83.0151 5.42499H4.98508C3.31166 5.42499 1.95508 6.78157 1.95508 8.45499V73.545C1.95508 75.2184 3.31166 76.575 4.98508 76.575H83.0151C84.6885 76.575 86.0451 75.2184 86.0451 73.545V8.45499C86.0451 6.78157 84.6885 5.42499 83.0151 5.42499Z" stroke="black" stroke-width="2.5" stroke-linecap="round" stroke-linejoin="round"/>
<path d="M2.30518 16.835H86.0452" stroke="black" stroke-width="2.5" stroke-linecap="round" stroke-linejoin="round"/>
<path d="M59.065 12.535C60.0204 12.535 60.795 11.7605 60.795 10.805C60.795 9.84956 60.0204 9.07501 59.065 9.07501C58.1095 9.07501 57.335 9.84956 57.335 10.805C57.335 11.7605 58.1095 12.535 59.065 12.535Z" fill="black"/>
<path d="M67.615 12.535C68.5705 12.535 69.345 11.7605 69.345 10.805C69.345 9.84956 68.5705 9.07501 67.615 9.07501C66.6596 9.07501 65.885 9.84956 65.885 10.805C65.885 11.7605 66.6596 12.535 67.615 12.535Z" fill="black"/>
<path d="M75.825 12.535C76.7804 12.535 77.555 11.7605 77.555 10.805C77.555 9.84956 76.7804 9.07501 75.825 9.07501C74.8695 9.07501 74.095 9.84956 74.095 10.805C74.095 11.7605 74.8695 12.535 75.825 12.535Z" fill="black"/>
<path d="M10.2952 10.805H38.5852" stroke="black" stroke-width="2.5" stroke-linecap="round" stroke-linejoin="round"/>
</svg>
