<svg width="16" height="17" viewBox="0 0 16 17" fill="none" xmlns="http://www.w3.org/2000/svg">
<g clip-path="url(#clip0_319_14665)">
<path d="M7.81519 6.51893V16C7.81519 16 9.28044 13.482 13.9964 13.9068L14.6243 5.47232C14.6243 5.47232 10.5118 4.26563 7.81519 6.51893Z" stroke="black" stroke-linecap="round" stroke-linejoin="round"/>
<path d="M7.81519 6.5192C7.81519 6.5192 10.3332 3.19466 14.4458 3.66256L14.3288 4.62914" stroke="black" stroke-linecap="round" stroke-linejoin="round"/>
<path d="M7.81519 6.51897C7.81519 6.51897 8.6771 2.00006 13.9964 2.00006L13.904 2.75732" stroke="black" stroke-linecap="round" stroke-linejoin="round"/>
<path d="M7.8153 6.51893V16C7.8153 16 6.35004 13.482 1.63412 13.9068L1 5.47232C1 5.47232 5.11258 4.26563 7.80915 6.51893H7.8153Z" stroke="black" stroke-linecap="round" stroke-linejoin="round"/>
<path d="M7.81542 6.51922C7.81542 6.51922 5.29739 3.19469 1.18481 3.66874L1.30179 4.63532" stroke="black" stroke-linecap="round" stroke-linejoin="round"/>
<path d="M7.8149 6.51897C7.8149 6.51897 6.94682 2.00006 1.62756 2.00006L1.71991 2.75732" stroke="black" stroke-linecap="round" stroke-linejoin="round"/>
</g>
<defs>
<clipPath id="clip0_319_14665">
<rect width="16" height="16" fill="white" transform="translate(0 0.580017)"/>
</clipPath>
</defs>
</svg>
