<svg width="84" height="84" viewBox="0 0 84 84" fill="none" xmlns="http://www.w3.org/2000/svg">
<path d="M41.9799 63.16C29.7999 63.16 19.1999 58.79 13.6799 52.33C17.8499 63.94 28.9499 72.2 41.9799 72.2C55.0099 72.2 66.1099 63.91 70.2799 52.33C64.7599 58.79 54.1599 63.16 41.9799 63.16Z" fill="black"/>
<path d="M41.9799 21.05C54.1599 21.05 64.7599 25.42 70.2799 31.88C66.1099 20.3 55.0099 12.01 41.9799 12.01C28.9499 12.01 17.8499 20.3 13.6799 31.88C19.2299 25.45 29.7999 21.05 41.9799 21.05Z" fill="black"/>
<path d="M19.17 78.77C16.57 78.88 14.34 76.85 14.25 74.25C14.14 71.65 16.17 69.42 18.77 69.33C21.37 69.22 23.6 71.25 23.69 73.85C23.8 76.45 21.8 78.65 19.17 78.77Z" fill="black"/>
<path d="M15.5399 17.17C13.9099 17.23 12.5399 15.97 12.4499 14.34C12.3899 12.71 13.6499 11.34 15.2799 11.25C16.9099 11.19 18.2799 12.45 18.3699 14.08C18.4599 15.71 17.1699 17.08 15.5399 17.17Z" fill="black"/>
<path d="M62.4999 13.65C59.9599 13.76 57.8099 11.79 57.6999 9.25001C57.5899 6.71001 59.5599 4.56001 62.0999 4.48001C64.6399 4.37001 66.7899 6.34001 66.8699 8.88001C66.9799 11.4 65.0099 13.54 62.4999 13.65Z" fill="black"/>
<path d="M7.58994 46.09C7.58994 48.81 7.38994 49.72 6.81994 50.38C6.32994 50.92 5.50994 51.18 4.55994 51.24L4.75994 52.87C5.86994 52.87 7.38994 52.5 8.29994 51.58C9.32994 50.55 9.66994 49.12 9.66994 46.89V36.57H7.57994V46.09H7.58994Z" fill="black"/>
<path d="M23.14 44.86C23.14 46.03 23.17 47.06 23.23 47.95H21.37L21.26 46.09H21.2C20.66 47 19.46 48.21 17.43 48.21C15.63 48.21 13.49 47.21 13.49 43.24V36.58H15.58V42.87C15.58 45.04 16.24 46.5 18.12 46.5C19.52 46.5 20.49 45.53 20.86 44.61C20.97 44.3 21.06 43.92 21.06 43.55V36.58H23.15V44.87L23.14 44.86Z" fill="black"/>
<path d="M27.06 40.31C27.06 38.85 27 37.68 26.97 36.59H28.83L28.92 38.53H28.98C29.84 37.16 31.18 36.33 33.04 36.33C35.81 36.33 37.9 38.65 37.9 42.1C37.9 46.19 35.38 48.22 32.7 48.22C31.19 48.22 29.87 47.56 29.18 46.45H29.12V52.62H27.06V40.3V40.31ZM29.12 43.34C29.12 43.65 29.18 43.94 29.21 44.2C29.58 45.63 30.84 46.63 32.33 46.63C34.53 46.63 35.82 44.86 35.82 42.23C35.82 39.94 34.62 38 32.42 38C30.99 38 29.68 39 29.28 40.57C29.22 40.83 29.14 41.14 29.14 41.43V43.35L29.12 43.34Z" fill="black"/>
<path d="M41.6099 36.6L44.1299 43.32C44.3899 44.06 44.6699 44.98 44.8699 45.64H44.9299C45.1299 44.95 45.3899 44.1 45.6699 43.27L47.9299 36.61H50.1299L47.0099 44.7C45.5199 48.59 44.4899 50.59 43.0899 51.82C42.0599 52.71 41.0599 53.08 40.5499 53.16L40.0399 51.42C40.5499 51.25 41.2399 50.93 41.8699 50.42C42.4399 49.96 43.1599 49.16 43.6099 48.1C43.6999 47.9 43.7799 47.73 43.7799 47.61C43.7799 47.49 43.7199 47.32 43.6399 47.07L39.4099 36.61H41.6099V36.6Z" fill="black"/>
<path d="M55.5599 33.31V36.57H58.5599V38.17H55.5899V44.29C55.5899 45.69 55.9899 46.49 57.1599 46.49C57.6999 46.49 58.0999 46.43 58.3599 46.35L58.4499 47.89C58.0499 48.06 57.4199 48.18 56.5899 48.18C55.6199 48.18 54.8499 47.87 54.3299 47.32C53.7299 46.72 53.5299 45.69 53.5299 44.35V38.18H51.7599V36.61H53.5299V33.89L55.5599 33.32V33.31Z" fill="black"/>
<path d="M62.3899 42.66C62.4499 45.46 64.2499 46.6 66.3099 46.6C67.7999 46.6 68.7099 46.34 69.4799 46L69.8199 47.49C69.0799 47.83 67.8199 48.2 66.0199 48.2C62.4999 48.2 60.3899 45.88 60.3899 42.48C60.3899 39.08 62.4199 36.36 65.7599 36.36C69.4999 36.36 70.5099 39.62 70.5099 41.71C70.5099 42.14 70.4499 42.45 70.4499 42.68H62.3899V42.65V42.66ZM68.4799 41.17C68.5099 39.86 67.9399 37.8 65.5899 37.8C63.4699 37.8 62.5599 39.72 62.3899 41.17H68.4799Z" fill="black"/>
<path d="M73.57 40.14C73.57 38.8 73.54 37.65 73.48 36.6H75.31L75.37 38.83H75.46C75.97 37.31 77.23 36.34 78.63 36.34C78.86 36.34 79.03 36.37 79.23 36.4V38.34C79.03 38.28 78.8 38.28 78.52 38.28C77.03 38.28 76 39.37 75.72 40.94C75.66 41.23 75.63 41.54 75.63 41.88V47.94H73.57V40.14Z" fill="black"/>
<path d="M72.35 1.07999H11.65C5.81231 1.07999 1.07996 5.81234 1.07996 11.65V72.35C1.07996 78.1876 5.81231 82.92 11.65 82.92H72.35C78.1876 82.92 82.92 78.1876 82.92 72.35V11.65C82.92 5.81234 78.1876 1.07999 72.35 1.07999Z" stroke="black" stroke-width="1.48" stroke-miterlimit="10"/>
</svg>
