<svg width="82" height="84" viewBox="0 0 82 84" fill="none" xmlns="http://www.w3.org/2000/svg">
<path d="M54.2716 81.05H8.78157C4.48157 81.05 0.981567 77.55 0.981567 73.25V8.44005C0.981567 4.14005 4.48157 0.640045 8.78157 0.640045H54.2716C58.5716 0.640045 62.0716 4.14005 62.0716 8.44005V33.8C62.0716 34.46 61.5416 34.99 60.8816 34.99C60.2216 34.99 59.6916 34.46 59.6916 33.8V8.44005C59.6916 5.45005 57.2616 3.01005 54.2616 3.01005H8.78157C5.79157 3.01005 3.35157 5.44005 3.35157 8.44005V73.24C3.35157 76.23 5.78157 78.67 8.78157 78.67H54.2716C57.2616 78.67 59.7016 76.24 59.7016 73.24V64.5C59.7016 63.84 60.2316 63.31 60.8916 63.31C61.5516 63.31 62.0816 63.84 62.0816 64.5V73.24C62.0816 77.54 58.5816 81.04 54.2816 81.04L54.2716 81.05Z" fill="black"/>
<path d="M30.7115 35.24H11.8715C11.2115 35.24 10.6815 34.71 10.6815 34.05C10.6815 33.39 11.2115 32.86 11.8715 32.86H30.7115C31.3715 32.86 31.9015 33.39 31.9015 34.05C31.9015 34.71 31.3715 35.24 30.7115 35.24Z" fill="black"/>
<path d="M37.5815 53.8701H11.8715C11.2115 53.8701 10.6815 53.3401 10.6815 52.6801C10.6815 52.0201 11.2115 51.4901 11.8715 51.4901H37.5815C38.2415 51.4901 38.7715 52.0201 38.7715 52.6801C38.7715 53.3401 38.2415 53.8701 37.5815 53.8701Z" fill="black"/>
<path d="M40.3415 62.72H11.8715C11.2115 62.72 10.6815 62.19 10.6815 61.53C10.6815 60.87 11.2115 60.34 11.8715 60.34H40.3415C41.0015 60.34 41.5315 60.87 41.5315 61.53C41.5315 62.19 41.0015 62.72 40.3415 62.72Z" fill="black"/>
<path d="M44.7315 71.5701H11.8715C11.2115 71.5701 10.6815 71.0401 10.6815 70.3801C10.6815 69.7201 11.2115 69.1901 11.8715 69.1901H44.7315C45.3915 69.1901 45.9215 69.7201 45.9215 70.3801C45.9215 71.0401 45.3915 71.5701 44.7315 71.5701Z" fill="black"/>
<path d="M30.7115 42.47H11.8715C11.2115 42.47 10.6815 41.94 10.6815 41.28C10.6815 40.62 11.2115 40.09 11.8715 40.09H30.7115C31.3715 40.09 31.9015 40.62 31.9015 41.28C31.9015 41.94 31.3715 42.47 30.7115 42.47Z" fill="black"/>
<path d="M57.6514 65.69C48.5314 65.69 41.1115 58.27 41.1115 49.15C41.1115 40.03 48.5314 32.61 57.6514 32.61C66.7714 32.61 74.1914 40.03 74.1914 49.15C74.1914 58.27 66.7714 65.69 57.6514 65.69ZM57.6514 34.99C49.8414 34.99 43.4914 41.34 43.4914 49.15C43.4914 56.96 49.8414 63.31 57.6514 63.31C65.4614 63.31 71.8115 56.96 71.8115 49.15C71.8115 41.34 65.4614 34.99 57.6514 34.99Z" fill="black"/>
<path d="M71.8116 72.74C71.4416 72.74 71.0716 72.56 70.8416 72.23L64.4816 63.18C64.1016 62.64 64.2316 61.9 64.7716 61.53C65.3116 61.15 66.0516 61.28 66.4216 61.82L72.7816 70.87C73.1616 71.41 73.0316 72.15 72.4916 72.52C72.2816 72.67 72.0416 72.74 71.8116 72.74Z" fill="black"/>
<path d="M77.9015 83.36C76.9215 83.36 75.9515 82.9 75.3415 82.03L68.9415 72.91C67.9515 71.5 68.2915 69.55 69.7015 68.56C71.1115 67.57 73.0615 67.91 74.0515 69.32L80.4515 78.44C81.4415 79.85 81.1015 81.8 79.6915 82.79C79.1415 83.17 78.5215 83.36 77.9015 83.36Z" fill="black"/>
<path d="M57.5416 48.36C54.9016 48.36 52.7616 46.21 52.7616 43.58C52.7616 40.95 54.9116 38.8 57.5416 38.8C60.1716 38.8 62.3216 40.95 62.3216 43.58C62.3216 46.21 60.1716 48.36 57.5416 48.36ZM57.5416 41.17C56.2116 41.17 55.1316 42.25 55.1316 43.58C55.1316 44.91 56.2116 45.99 57.5416 45.99C58.8716 45.99 59.9516 44.91 59.9516 43.58C59.9516 42.25 58.8716 41.17 57.5416 41.17Z" fill="black"/>
<path d="M65.4415 58.37H49.6315C48.9715 58.37 48.4415 57.84 48.4415 57.18V56.14C48.4415 51.13 52.5215 47.05 57.5315 47.05C62.5415 47.05 66.6215 51.13 66.6215 56.14V57.18C66.6215 57.84 66.0915 58.37 65.4315 58.37H65.4415ZM50.8215 55.99H64.2515C64.1715 52.36 61.1915 49.42 57.5315 49.42C53.8715 49.42 50.9015 52.35 50.8115 55.99H50.8215Z" fill="black"/>
<path d="M52.1715 32.01C51.8615 32.01 51.5615 31.89 51.3315 31.66L44.3615 24.69L37.3915 31.66C37.0515 32 36.5415 32.1 36.1015 31.92C35.6615 31.74 35.3715 31.3 35.3715 30.82V1.83005C35.3715 1.17005 35.9015 0.640045 36.5615 0.640045H52.1815C52.8415 0.640045 53.3715 1.17005 53.3715 1.83005V30.83C53.3715 31.31 53.0815 31.74 52.6415 31.93C52.4915 31.99 52.3415 32.02 52.1915 32.02L52.1715 32.01ZM44.3615 21.83C44.6815 21.83 44.9815 21.96 45.2015 22.18L50.9815 27.96V3.02005H37.7415V27.96L43.5215 22.18C43.7415 21.96 44.0415 21.83 44.3615 21.83Z" fill="black"/>
</svg>
