<svg width="108" height="82" viewBox="0 0 108 82" fill="none" xmlns="http://www.w3.org/2000/svg">
<path d="M106.889 60.6625C106.789 60.6125 104.499 59.4125 104.499 56.2025C104.499 51.3325 106.189 49.6325 106.509 49.3525C106.899 49.1525 107.149 48.7425 107.149 48.3025C107.149 47.8025 106.839 47.3625 106.369 47.1925L97.8595 44.0525C97.8695 43.9225 97.8794 43.7825 97.8794 43.6525C97.8794 41.6725 96.5294 40.0025 94.6994 39.5125V23.9225L103.219 20.8025C103.689 20.6325 103.999 20.1925 103.999 19.6925C103.999 19.1925 103.689 18.7525 103.229 18.5725L54.8195 0.482501C54.5495 0.382501 54.2595 0.382501 53.9895 0.482501L5.91945 18.5625C5.45945 18.7325 5.14945 19.1825 5.14945 19.6825C5.14945 20.1825 5.45945 20.6225 5.92945 20.7925L24.4995 27.6425V39.7525L4.39945 47.4425C3.53945 47.6325 0.439453 48.7425 0.439453 54.9625C0.439453 61.1825 3.27945 62.5625 3.71945 62.7225L55.1495 81.5225C55.2795 81.5725 55.4195 81.5925 55.5595 81.5925C55.6295 81.5925 55.6895 81.5925 55.7595 81.5725C55.7795 81.5725 55.7995 81.5725 55.8095 81.5625C55.8595 81.5625 55.8995 81.5425 55.9395 81.5225H55.9595L106.779 62.8525C107.229 62.6925 107.539 62.2725 107.559 61.8025C107.579 61.3225 107.329 60.8825 106.899 60.6725L106.889 60.6625ZM102.549 48.3025L97.3794 50.2425L96.4194 46.8525C96.6294 46.6725 96.8095 46.4725 96.9795 46.2525L102.539 48.3125L102.549 48.3025ZM92.4594 47.7625C92.8195 47.8625 93.1994 47.9125 93.5994 47.9125C93.8195 47.9125 94.0395 47.8925 94.2495 47.8625L96.7394 56.6825H90.3395L92.4594 47.7525V47.7625ZM95.5095 43.6325C95.5095 44.6825 94.6495 45.5425 93.5994 45.5425C92.5494 45.5425 91.6895 44.6825 91.6895 43.6325C91.6895 42.5825 92.5494 41.7225 93.5994 41.7225C94.6495 41.7225 95.5095 42.5825 95.5095 43.6325ZM92.3295 39.5425C91.4194 39.8225 90.6395 40.4025 90.0994 41.1725L84.5695 39.1325V27.6225L92.3295 24.7825V39.5525V39.5425ZM54.3995 2.8725L99.3794 19.6625L93.0994 21.9625L55.1095 18.3125C54.4595 18.2525 53.8795 18.7325 53.8095 19.3825C53.7495 20.0325 54.2295 20.6125 54.8795 20.6825L87.9295 23.8525L54.3895 36.1325L9.73945 19.6625L54.3995 2.8725ZM53.9895 38.5125C54.1195 38.5625 54.2595 38.5825 54.3995 38.5825C54.5395 38.5825 54.6795 38.5625 54.8095 38.5125L82.1895 28.4925V43.8125C82.0695 44.3125 81.2695 46.9725 78.0095 49.6025C74.6095 52.3525 67.7795 55.6225 54.5695 55.6225C41.3595 55.6225 34.5095 52.3425 31.0895 49.6025C27.7995 46.9625 26.9895 44.2925 26.8695 43.8125V28.5225L53.9895 38.5225V38.5125ZM24.5095 44.1425C24.5395 44.2925 25.2095 47.8325 29.3995 51.2825C34.7995 55.7325 43.2595 57.9925 54.5695 57.9925C65.8795 57.9925 74.3294 55.7325 79.6994 51.2825C83.8694 47.8225 84.5195 44.2825 84.5495 44.1325C84.5595 44.0625 84.5695 44.0025 84.5695 43.9325V41.6625L89.3195 43.4225C89.3195 43.4925 89.3195 43.5725 89.3195 43.6425C89.3195 44.7025 89.7094 45.6725 90.3494 46.4225L88.6595 53.5225L55.5395 65.9325L8.10945 48.5525L24.4995 42.2825V43.9225C24.4995 43.9925 24.4995 44.0625 24.5195 44.1325L24.5095 44.1425ZM4.51945 60.4725C4.51945 60.4725 4.50945 60.4725 4.49945 60.4725C4.49945 60.4725 4.51945 60.4725 4.52945 60.4825H4.51945V60.4725ZM2.79945 54.9525C2.79945 51.4925 3.90945 50.1425 4.64945 49.8225L53.1495 67.5725C52.1895 68.7125 51.2295 70.6325 51.2295 73.7825C51.2295 75.4325 51.4995 76.7525 51.8895 77.7925L4.53945 60.4825C4.41945 60.4225 2.80945 59.4925 2.80945 54.9525H2.79945ZM55.6295 79.0925C54.9795 78.6325 53.6095 77.2625 53.6095 73.7925C53.6095 69.3825 55.8095 68.3625 55.9595 68.2925L87.9894 56.2925L87.6795 57.6025C87.5994 57.9525 87.6795 58.3325 87.8995 58.6125C88.1195 58.8925 88.4695 59.0625 88.8295 59.0625H98.2995C98.6695 59.0625 99.0194 58.8925 99.2495 58.5925C99.4795 58.2925 99.5494 57.9125 99.4494 57.5525L98.0294 52.5325L102.959 50.6825C102.479 52.0025 102.119 53.7925 102.119 56.1925C102.119 58.5925 103.059 60.2725 103.999 61.3225L55.6395 79.0925H55.6295Z" fill="black"/>
</svg>
