<svg width="203" height="46" viewBox="0 0 203 46" fill="none" xmlns="http://www.w3.org/2000/svg">
<path d="M27.1639 23.8223H21.0626C21.0098 23.7211 20.9447 23.6098 20.8919 23.4929C20.5225 22.6734 20.1621 21.8516 19.7882 21.0344C19.3582 20.0935 18.5924 19.6112 17.5842 19.6011C14.8704 19.5764 12.1566 19.5775 9.44387 19.6011C8.41539 19.6101 7.64515 20.1025 7.21062 21.0602C6.79743 21.9708 6.39322 22.8858 5.97891 23.8121H0C3.68166 15.9982 7.3476 8.2225 11.018 0.435547H16.1391C19.7938 8.18877 23.4632 15.9735 27.1639 23.8223ZM13.5185 7.01067C13.4545 7.11971 13.4186 7.16693 13.395 7.22089C12.4103 9.42533 11.4357 11.6343 10.4331 13.8309C10.2107 14.3187 10.405 14.8662 11.1146 14.8437C12.3519 14.8055 13.5915 14.8336 14.8288 14.8325C15.242 14.8325 15.6552 14.8415 16.0673 14.828C16.4367 14.8156 16.6792 14.593 16.6691 14.2614C16.6646 14.0917 16.6028 13.9152 16.5332 13.7567C16.0819 12.7337 15.6193 11.7141 15.1623 10.6934C14.6211 9.48491 14.0822 8.27533 13.5185 7.01179V7.01067Z" fill="white"/>
<path d="M35.1304 29.3671V34.5258H0.608826V29.3671H35.1316H35.1304Z" fill="white"/>
<path d="M0.603943 40.0906H35.1155V45.2616H0.603943V40.0906Z" fill="white"/>
<path d="M34.9886 23.8145H29.6979V0.440186H34.9886V23.8134V23.8145Z" fill="white"/>
<path d="M54.6027 7.12505C55.5582 8.46841 56.489 9.77579 57.458 11.136H55.218C54.3725 9.93766 53.499 8.69998 52.621 7.45555H50.2665V11.1461H48.3869V0.468993C48.5295 0.458876 48.6575 0.443138 48.7866 0.443138C50.2328 0.44089 51.6778 0.443138 53.124 0.443138C53.9302 0.443138 54.7128 0.560049 55.4358 0.937762C56.4789 1.48185 57.0302 2.3598 57.1032 3.52217C57.2132 5.2927 56.4823 6.39773 54.8194 7.03175C54.7655 7.05199 54.715 7.07784 54.605 7.1273L54.6027 7.12505ZM50.2788 5.76034C50.8155 5.76034 51.3129 5.76821 51.8103 5.75809C52.3987 5.74685 52.9904 5.75585 53.5731 5.69177C54.3883 5.60296 54.9867 5.08473 55.1473 4.40912C55.4055 3.33219 54.8655 2.42838 53.7629 2.25526C53.042 2.14284 52.2976 2.17769 51.5633 2.15746C51.1411 2.14622 50.7178 2.15521 50.2777 2.15521V5.75922L50.2788 5.76034Z" fill="white"/>
<path d="M158.679 29.7019C158.89 29.2736 159.109 28.8285 159.301 28.4395C159.963 28.6744 160.571 28.933 161.204 29.1016C161.85 29.2736 162.516 29.2702 163.173 29.0938C163.991 28.8734 164.507 28.3496 164.681 27.5289C164.767 27.122 164.763 26.6971 164.746 26.2452C163.863 27.276 162.782 27.7167 161.468 27.5638C160.586 27.4615 159.831 27.0894 159.225 26.4385C157.924 25.039 157.917 22.5771 159.207 21.1674C159.947 20.358 160.886 19.9826 161.966 19.9781C163.055 19.9736 163.958 20.4199 164.678 21.2551C164.705 21.2394 164.731 21.2247 164.758 21.209V20.1635H166.58C166.594 20.285 166.614 20.3839 166.614 20.4839C166.614 22.5636 166.62 24.6444 166.601 26.7241C166.596 27.1771 166.537 27.638 166.432 28.0787C166.134 29.3377 165.331 30.1504 164.089 30.4809C162.307 30.9565 160.585 30.7541 158.938 29.9211C158.872 29.8885 158.811 29.8458 158.751 29.8031C158.729 29.7873 158.716 29.757 158.677 29.7008L158.679 29.7019ZM162.436 26.0069C163.78 25.999 164.796 25.0412 164.796 23.781C164.796 22.5108 163.748 21.5373 162.391 21.5485C161.071 21.5597 160.115 22.5085 160.125 23.799C160.134 25.0761 161.116 26.0147 162.436 26.0069Z" fill="white"/>
<path d="M118.517 10.0746V11.1414H116.692V0H118.505V4.26163C118.548 4.29423 118.591 4.32683 118.635 4.35831C118.667 4.27737 118.683 4.18407 118.736 4.11887C120.22 2.2629 122.909 2.69008 124.143 4.32683C124.57 4.89228 124.841 5.52405 124.939 6.22102C125.107 7.40249 125.003 8.54463 124.362 9.59121C123.136 11.5922 120.281 11.9654 118.762 10.2174C118.707 10.1544 118.697 10.051 118.666 9.96667C118.617 10.0015 118.568 10.0375 118.518 10.0723L118.517 10.0746ZM123.151 7.14282C123.109 6.8674 123.089 6.58637 123.024 6.31657C122.78 5.31721 121.961 4.59888 121.016 4.53592C119.968 4.46623 119.088 5.01706 118.68 5.99956C118.422 6.62009 118.391 7.25973 118.562 7.90386C118.928 9.28319 120.288 10.0397 121.574 9.59008C122.523 9.25846 123.119 8.3198 123.151 7.14394V7.14282Z" fill="white"/>
<path d="M75.5466 3.08802H77.3734V4.27512C77.4194 4.30547 77.4654 4.3347 77.5115 4.36505C77.5362 4.29423 77.5452 4.21104 77.5889 4.15483C79.0317 2.28538 81.8118 2.62263 83.1041 4.43587C84.1674 5.92761 84.1641 8.33103 83.0952 9.8149C81.7747 11.6484 79.0284 11.9036 77.5811 10.1521C77.544 10.1072 77.5261 10.0465 77.498 9.99364C77.4643 10.0105 77.4318 10.0274 77.3981 10.0431V13.574H75.5466V3.08802ZM82.0375 7.19452C82.0263 7.19115 82.015 7.18778 82.0038 7.1844C81.9903 6.9933 81.987 6.80107 81.9634 6.61221C81.8309 5.578 81.0528 4.71803 80.1074 4.55615C79.1115 4.38528 78.1324 4.84956 77.6709 5.76911C77.1802 6.74599 77.1948 7.73973 77.7933 8.6694C78.3098 9.47316 79.0834 9.81378 80.031 9.68563C80.9147 9.56647 81.503 9.04486 81.8039 8.21974C81.923 7.89262 81.9623 7.53739 82.0375 7.19452Z" fill="white"/>
<path d="M52.1495 17.4565H53.9168C55.473 21.0201 57.036 24.5994 58.6191 28.2225H56.625C56.2736 27.3917 55.9132 26.5408 55.5449 25.6707H50.4766C50.1161 26.5093 49.7501 27.3591 49.3785 28.2236H47.4484C49.0248 24.614 50.5866 21.0358 52.1495 17.4565ZM54.833 23.9395C54.2211 22.5231 53.6294 21.1539 53.0017 19.7026C52.3763 21.1662 51.7902 22.5354 51.1907 23.9395H54.833Z" fill="white"/>
<path d="M93.8292 7.10411C93.8337 9.49067 91.9384 11.3523 89.502 11.3556C87.0924 11.359 85.2275 9.539 85.2162 7.17605C85.205 4.77375 87.0745 2.91554 89.5143 2.90205C91.9373 2.88856 93.8248 4.72766 93.8304 7.10523L93.8292 7.10411ZM87.0745 7.11422C87.0745 8.93421 88.6632 10.1404 90.3351 9.59184C91.4119 9.23886 92.053 8.17879 91.9643 6.89839C91.8509 5.26051 90.3216 4.1802 88.7665 4.63998C87.7336 4.94575 87.0745 5.90914 87.0745 7.11422Z" fill="white"/>
<path d="M136.931 8.86704C137.307 9.20203 137.648 9.50443 138.005 9.82256C137.488 10.4858 136.837 10.922 136.057 11.158C135.176 11.4256 134.278 11.4413 133.4 11.158C131.879 10.6679 130.957 9.62246 130.643 8.05428C130.438 7.02569 130.555 6.02632 131.021 5.08204C131.803 3.49475 133.366 2.7056 135.206 2.95628C136.714 3.16088 137.916 4.35697 138.247 6.00609C138.317 6.3512 138.338 6.70643 138.365 7.05829C138.382 7.27637 138.368 7.4967 138.368 7.77212H132.421C132.56 8.62422 132.926 9.25936 133.667 9.58312C134.892 10.1193 135.964 9.7686 136.932 8.86591L136.931 8.86704ZM136.474 6.52881C136.521 5.40354 135.66 4.4705 134.572 4.4379C133.419 4.40418 132.481 5.31586 132.447 6.52881H136.474Z" fill="white"/>
<path d="M66.2986 7.78089H60.3365C60.4825 8.60602 60.8227 9.23666 61.5447 9.56379C62.7831 10.1247 63.8677 9.77737 64.8468 8.86457C65.2039 9.18045 65.5531 9.49072 65.9247 9.82009C65.3442 10.5384 64.6357 11.0106 63.7588 11.2084C62.1689 11.5659 60.7306 11.2804 59.573 10.0775C57.9102 8.35196 58.1662 5.2111 60.0311 3.71036C61.7951 2.29282 65.5373 2.4828 66.2043 6.21496C66.2616 6.53309 66.2739 6.85909 66.2964 7.18172C66.3087 7.35597 66.2986 7.53246 66.2986 7.78089ZM64.4224 6.53422C64.3303 5.17288 63.4355 4.34775 62.2071 4.44331C61.1977 4.522 60.3085 5.53597 60.3938 6.53422H64.4213H64.4224Z" fill="white"/>
<path d="M108.668 41.9088H102.746C102.854 42.6811 103.156 43.287 103.798 43.631C105.075 44.3156 106.215 43.9671 107.253 43.0229C107.615 43.3421 107.966 43.6513 108.332 43.975C107.399 45.1048 106.201 45.569 104.799 45.4904C103.127 45.3959 101.844 44.6236 101.219 43.0408C100.568 41.3906 100.736 39.7741 101.914 38.3903C102.997 37.1188 104.425 36.7782 106.005 37.2268C107.552 37.6652 108.3 38.8343 108.603 40.3395C108.705 40.8443 108.733 41.3557 108.668 41.91V41.9088ZM102.783 40.6622H106.827C106.745 39.4087 105.884 38.5454 104.776 38.5746C103.695 38.6027 102.771 39.5605 102.784 40.6622H102.783Z" fill="white"/>
<path d="M138.312 24.8336C138.453 25.6868 138.815 26.2893 139.523 26.6524C140.483 27.1437 141.512 26.9278 142.842 25.9588C143.186 26.2657 143.535 26.5771 143.9 26.902C143.296 27.6484 142.554 28.1262 141.641 28.3117C140.117 28.6208 138.73 28.3465 137.602 27.2167C135.871 25.4811 136.113 22.2615 138.049 20.7596C139.877 19.3421 143.539 19.6411 144.177 23.3047C144.262 23.7903 144.258 24.2906 144.299 24.8347H138.311L138.312 24.8336ZM138.364 23.5902H142.401C142.298 22.275 141.421 21.4398 140.258 21.514C139.207 21.5814 138.328 22.5347 138.364 23.5902Z" fill="white"/>
<path d="M176.129 24.8556H170.21C170.358 25.6987 170.721 26.3541 171.492 26.6744C172.703 27.1781 173.768 26.8453 174.721 25.9471C175.08 26.2619 175.43 26.5699 175.802 26.8959C175.396 27.4265 174.902 27.8154 174.311 28.0594C173.032 28.5889 171.75 28.5787 170.505 27.9526C168.934 27.1612 168.125 25.4694 168.395 23.5504C168.614 21.9958 169.407 20.8075 170.911 20.2365C172.817 19.5125 175.418 20.1735 176.05 23.1255C176.168 23.6752 176.198 24.2306 176.129 24.8556ZM174.267 23.5954C174.311 22.4117 173.37 21.4697 172.218 21.5112C171.131 21.5506 170.173 22.5702 170.269 23.5954H174.267Z" fill="white"/>
<path d="M201.517 25.9442C201.881 26.2635 202.232 26.5737 202.599 26.8953C201.985 27.6709 201.206 28.1363 200.266 28.333C199.518 28.4893 198.769 28.4646 198.034 28.2521C196.408 27.7845 195.269 26.3467 195.166 24.6526C195.119 23.8769 195.192 23.1237 195.501 22.4009C196.197 20.7675 197.792 19.8244 199.49 19.993C201.531 20.1965 202.57 21.6331 202.86 23.2148C202.954 23.7285 202.953 24.2603 203 24.8437H197.013C197.149 25.698 197.514 26.341 198.257 26.6614C199.48 27.1875 200.56 26.8548 201.518 25.9454L201.517 25.9442ZM201.079 23.6071C201.077 22.3447 200.109 21.4263 198.923 21.5162C197.876 21.596 196.938 22.6494 197.084 23.6071H201.08H201.079Z" fill="white"/>
<path d="M106.193 28.2218H104.412C104.396 27.9262 104.383 27.6519 104.366 27.327C104.255 27.418 104.177 27.4776 104.104 27.5417C102.984 28.5028 101.718 28.6445 100.383 28.124C99.3875 27.7362 98.9069 26.9392 98.8979 25.8757C98.889 24.8044 99.4257 24.0006 100.411 23.5971C101.371 23.2036 102.371 23.2272 103.373 23.361C103.706 23.4049 104.031 23.4982 104.36 23.5679C104.519 22.6404 104.002 21.9052 103.076 21.7209C102.256 21.5579 101.464 21.6928 100.681 21.9412C100.5 21.9985 100.324 22.0671 100.095 22.1492C99.932 21.6647 99.7748 21.1982 99.6132 20.7159C100.427 20.3011 101.269 20.1134 102.141 20.0538C102.791 20.0099 103.439 20.038 104.07 20.2224C105.211 20.5574 105.89 21.3229 106.118 22.4831C106.179 22.7989 106.208 23.1272 106.211 23.4498C106.221 24.9393 106.215 26.4299 106.214 27.9194C106.214 28.0071 106.203 28.0948 106.194 28.2218H106.193ZM104.408 24.7729C103.686 24.4986 102.957 24.4053 102.217 24.4852C101.904 24.5189 101.58 24.6257 101.301 24.7729C100.856 25.0079 100.685 25.4238 100.722 25.9252C100.758 26.4063 101.021 26.7469 101.456 26.8807C101.826 26.9942 102.236 27.0493 102.622 27.0246C103.883 26.9437 104.566 26.0736 104.408 24.7741V24.7729Z" fill="white"/>
<path d="M91.3705 37.2363H93.2209V45.2874H91.3806V44.1509C91.2268 44.3083 91.1359 44.3914 91.0573 44.4847C90.0861 45.6302 88.6197 45.6651 87.5833 45.2357C86.6873 44.8658 86.2371 44.125 86.0541 43.2066C85.9991 42.9334 85.9721 42.6501 85.971 42.3713C85.9631 40.7492 85.9665 39.1259 85.9676 37.5038C85.9676 37.4319 85.9766 37.3588 85.9845 37.252H87.8259V37.7286C87.8259 39.027 87.8225 40.3254 87.8292 41.6227C87.8303 41.8722 87.8506 42.124 87.891 42.3702C88.0257 43.1785 88.5276 43.6754 89.2743 43.7597C90.1815 43.8631 90.9225 43.4786 91.2044 42.7007C91.3167 42.3905 91.3604 42.0397 91.3638 41.707C91.3818 40.394 91.3717 39.081 91.3717 37.768V37.234L91.3705 37.2363Z" fill="white"/>
<path d="M123.49 28.2236H121.663V20.1657H123.465V21.2111C123.492 21.2246 123.519 21.2392 123.545 21.2527C123.629 21.1684 123.715 21.0875 123.795 20.9998C124.678 20.0319 125.903 19.7239 127.137 20.1612C128.158 20.5232 128.832 21.4742 128.877 22.6973C128.912 23.6539 128.895 24.6128 128.898 25.5717C128.9 26.4395 128.898 27.3085 128.898 28.2123H127.04C127.04 28.0336 127.04 27.8762 127.04 27.7188C127.04 26.4654 127.04 25.2131 127.04 23.9597C127.04 23.7236 127.04 23.4875 127.019 23.2526C126.934 22.324 126.373 21.7575 125.47 21.6777C124.564 21.5979 123.795 22.1262 123.587 23.0019C123.52 23.2852 123.496 23.5853 123.494 23.8776C123.484 25.1603 123.49 26.4429 123.49 27.7256C123.49 27.8841 123.49 28.0415 123.49 28.2247V28.2236Z" fill="white"/>
<path d="M52.8665 37.2283H54.6855V38.4154C54.8561 38.2332 54.9527 38.1332 55.047 38.0298C55.9654 37.018 57.4779 36.746 58.6871 37.389C59.628 37.8893 60.0547 38.7459 60.0839 39.7497C60.1378 41.563 60.1007 43.3785 60.1007 45.1928C60.1007 45.2187 60.0794 45.2445 60.0569 45.294H58.2503V44.8162C58.2503 43.474 58.2537 42.1318 58.247 40.7884C58.2459 40.54 58.2256 40.2859 58.1718 40.0442C57.9932 39.2517 57.5014 38.8302 56.6986 38.7481C55.9497 38.6717 55.2356 39.0258 54.9516 39.6935C54.8056 40.0364 54.7259 40.4298 54.718 40.803C54.6911 42.1307 54.7068 43.4583 54.7068 44.7859C54.7068 44.9455 54.7068 45.1063 54.7068 45.2906H52.8665V37.2283Z" fill="white"/>
<path d="M179.75 28.2233H177.918V20.1756H179.745V21.2165C179.771 21.2244 179.798 21.2323 179.824 21.2413C179.888 21.1693 179.953 21.0985 180.017 21.0254C180.902 20.0238 182.178 19.7068 183.43 20.1823C184.375 20.5409 184.862 21.275 185.063 22.2249C185.121 22.4969 185.147 22.7802 185.149 23.059C185.157 24.6811 185.154 26.3022 185.152 27.9243C185.152 28.0109 185.139 28.0963 185.13 28.2143H183.32C183.312 28.0659 183.298 27.9108 183.296 27.7568C183.294 26.4449 183.299 25.1331 183.292 23.8201C183.291 23.5559 183.268 23.2895 183.222 23.0298C183.092 22.3025 182.637 21.8348 181.973 21.7134C181.146 21.5628 180.434 21.8449 180.048 22.4756C179.809 22.8668 179.748 23.2984 179.75 23.7481C179.753 25.06 179.75 26.3719 179.75 27.6849V28.2222V28.2233Z" fill="white"/>
<path d="M102.802 11.1545H100.997C100.988 10.9859 100.972 10.8308 100.971 10.6756C100.969 9.39298 100.973 8.10921 100.968 6.82656C100.966 6.56239 100.95 6.29484 100.911 6.03404C100.793 5.22802 100.293 4.71654 99.5517 4.62323C98.6456 4.5097 97.9247 4.85031 97.6283 5.60911C97.4925 5.95535 97.4374 6.35217 97.4307 6.72651C97.4071 8.03839 97.4228 9.35139 97.4206 10.6644C97.4206 10.8218 97.4071 10.9803 97.3993 11.1534H95.5691C95.5556 8.46894 95.5669 5.79684 95.5624 3.09215H97.4071V4.12974C97.4352 4.13873 97.4633 4.14772 97.4913 4.15559C97.5868 4.05329 97.6845 3.95324 97.7776 3.8487C98.8353 2.65598 100.473 2.73917 101.427 3.25065C102.215 3.67333 102.599 4.38604 102.755 5.23589C102.803 5.49557 102.824 5.76424 102.825 6.02842C102.831 7.62133 102.828 9.21424 102.827 10.806C102.827 10.9072 102.812 11.0073 102.801 11.1534L102.802 11.1545Z" fill="white"/>
<path d="M67.3394 10.1197C67.6358 9.67008 67.9019 9.26764 68.1546 8.88543C68.6127 9.12375 69.0158 9.36994 69.448 9.54755C70.0375 9.79037 70.655 9.93876 71.3018 9.78362C71.4421 9.7499 71.5881 9.70268 71.7094 9.62624C72.1944 9.31935 72.2157 8.69208 71.7385 8.38069C71.496 8.22219 71.2142 8.11652 70.938 8.01759C70.5641 7.88382 70.1767 7.79051 69.8017 7.65899C69.4974 7.5522 69.1954 7.43191 68.9068 7.28802C67.2328 6.45053 67.5741 4.30791 68.6329 3.55586C69.0259 3.27707 69.4492 3.09384 69.9185 3.00053C71.0593 2.77233 72.7333 3.18939 73.5833 3.89423C73.3531 4.30567 73.1196 4.72385 72.8861 5.13978C72.4549 4.9543 72.0574 4.76769 71.6487 4.61368C71.203 4.44506 70.7381 4.36075 70.2621 4.45068C70.0925 4.48216 69.9162 4.54061 69.7736 4.63504C69.3728 4.90146 69.3414 5.42644 69.7242 5.71759C69.9544 5.89183 70.2317 6.01437 70.5023 6.12116C70.8717 6.26617 71.2591 6.36173 71.6308 6.50224C71.9743 6.63152 72.3168 6.77091 72.639 6.94403C73.3711 7.33524 73.7978 7.93665 73.7854 8.791C73.7719 9.69257 73.4295 10.4233 72.6188 10.883C71.8396 11.3259 70.9919 11.3743 70.1307 11.272C69.1617 11.1562 68.2837 10.7942 67.4955 10.2175C67.4472 10.1827 67.3944 10.1557 67.3394 10.1231V10.1197Z" fill="white"/>
<path d="M110.479 3.88122C110.24 4.30952 110.011 4.71983 109.768 5.156C109.491 5.02223 109.235 4.88733 108.971 4.77267C108.397 4.52535 107.806 4.34212 107.171 4.44666C106.988 4.47702 106.795 4.54334 106.644 4.64676C106.261 4.90981 106.238 5.40668 106.598 5.70346C106.776 5.8496 106.993 5.96201 107.21 6.04632C107.634 6.21157 108.075 6.33523 108.501 6.4971C108.858 6.632 109.213 6.77814 109.552 6.95238C111.265 7.83709 110.825 10.1663 109.566 10.8554C108.794 11.2781 107.978 11.368 107.128 11.2815C106.063 11.1735 105.113 10.7801 104.244 10.1034C104.525 9.67843 104.789 9.27936 105.065 8.86006C105.219 8.95673 105.34 9.0343 105.461 9.11074C106.055 9.48396 106.69 9.76837 107.393 9.81446C107.75 9.83806 108.124 9.77736 108.472 9.68518C108.775 9.60537 108.944 9.35131 108.966 9.02081C108.987 8.70043 108.832 8.47897 108.566 8.3407C108.319 8.21255 108.061 8.10238 107.798 8.0102C107.423 7.87868 107.037 7.78313 106.662 7.6516C106.371 7.5493 106.083 7.43239 105.808 7.29525C104.113 6.44877 104.43 4.25893 105.592 3.52374C105.98 3.27755 106.436 3.09657 106.886 2.99764C107.954 2.76157 109.539 3.17413 110.481 3.88347L110.479 3.88122Z" fill="white"/>
<path d="M61.5022 44.3009C61.8087 43.8355 62.0737 43.4342 62.351 43.0138C62.5666 43.1453 62.7496 43.2656 62.9394 43.3724C63.6849 43.7928 64.4686 44.0705 65.3422 43.9569C65.5274 43.9322 65.7217 43.8749 65.88 43.7804C66.3763 43.4848 66.4021 42.8609 65.9249 42.5394C65.697 42.3854 65.4298 42.2808 65.1681 42.1864C64.7943 42.0515 64.4069 41.9582 64.0319 41.8267C63.713 41.7154 63.3941 41.5951 63.0932 41.4445C61.4236 40.6104 61.7571 38.4711 62.8114 37.7056C63.6198 37.1188 64.5203 37.0187 65.4646 37.1356C66.2337 37.2301 66.95 37.4965 67.6136 37.9C67.6608 37.9293 67.6989 37.9731 67.7674 38.0316C67.5361 38.4498 67.3093 38.8589 67.0623 39.3041C66.9231 39.2367 66.8007 39.1636 66.6693 39.1186C66.1293 38.9331 65.5948 38.7151 65.0401 38.5914C64.7572 38.5284 64.426 38.6083 64.1352 38.6881C63.85 38.7656 63.6692 38.9882 63.6445 39.3052C63.6198 39.6087 63.7691 39.828 64.0195 39.9539C64.3597 40.1247 64.7179 40.2619 65.0727 40.4013C65.633 40.6216 66.2236 40.7846 66.7558 41.0578C68.0605 41.7289 68.1851 42.8598 67.7742 43.9457C67.5114 44.6393 66.9556 45.0519 66.2629 45.2688C65.1142 45.6263 63.9847 45.497 62.8945 45.0384C62.4251 44.8405 61.9895 44.5617 61.5033 44.3009H61.5022Z" fill="white"/>
<path d="M194.208 21.3996C193.828 21.8065 193.466 22.1944 193.068 22.6204C192.397 21.8909 191.593 21.4828 190.588 21.6469C190.045 21.7357 189.6 22.0168 189.249 22.4428C188.402 23.468 188.441 25.1048 189.343 26.0626C189.875 26.628 190.542 26.8337 191.307 26.7798C192.059 26.7258 192.623 26.311 193.165 25.8074C193.517 26.193 193.852 26.5605 194.198 26.9383C193.42 28.1377 191.518 28.7324 189.804 28.2692C188.089 27.8061 186.882 26.2739 186.783 24.4348C186.684 22.5979 187.774 20.8994 189.465 20.2552C191.155 19.6111 193.166 20.0843 194.21 21.3985L194.208 21.3996Z" fill="white"/>
<path d="M93.6047 21.389C93.2185 21.8027 92.8491 22.1984 92.4673 22.6087C92.3539 22.5086 92.2573 22.4221 92.1608 22.3355C91.3501 21.6104 90.4238 21.3676 89.4245 21.8353C88.4241 22.304 88.0278 23.191 88.0412 24.2623C88.057 25.5022 88.7778 26.4679 89.877 26.7231C90.7393 26.9232 91.5118 26.7017 92.1855 26.1318C92.2978 26.0362 92.4067 25.9373 92.5425 25.8181C92.8828 26.2037 93.2196 26.5848 93.5677 26.9805C92.3494 28.6768 89.4369 28.959 87.6673 27.4729C85.8057 25.9103 85.6631 22.9853 87.3631 21.2395C89.0518 19.5038 91.9912 19.5521 93.6081 21.3901L93.6047 21.389Z" fill="white"/>
<path d="M77.0457 21.7384H76.0531V20.2107H77.0041C77.0311 19.8206 77.0434 19.4733 77.0805 19.127C77.2287 17.7353 78.0034 16.9945 79.3968 16.9664C79.9189 16.9563 80.4432 17.0541 80.9945 17.1058V18.6886C80.6498 18.6369 80.3321 18.5616 80.011 18.5481C79.3126 18.5177 78.9376 18.864 78.8814 19.5621C78.8657 19.7633 78.8792 19.9668 78.8792 20.2006H80.9743V21.7137H78.9162V28.218H77.0457V21.7395V21.7384Z" fill="white"/>
<path d="M133.219 21.7179C133.219 22.6116 133.219 23.4221 133.219 24.2315C133.219 24.7475 133.206 25.2646 133.225 25.7806C133.248 26.4011 133.55 26.7091 134.169 26.7001C134.545 26.6945 134.92 26.6035 135.325 26.5473V27.9963C134.366 28.4549 133.375 28.5516 132.372 28.0941C131.838 27.8501 131.561 27.3746 131.454 26.8137C131.393 26.4978 131.366 26.1707 131.364 25.848C131.354 24.6531 131.359 23.4581 131.359 22.2643C131.359 22.1058 131.359 21.9473 131.359 21.7483H130.372V20.1543H131.347V17.9509H133.198V20.1306H135.373V21.7191H133.219V21.7179Z" fill="white"/>
<path d="M69.9359 38.8114H68.9456V37.2387H69.9112V35.0354H71.7761V37.1915H73.942V38.8035H71.8255C71.8121 38.9485 71.7952 39.0475 71.7952 39.1464C71.793 40.3402 71.7919 41.5341 71.7952 42.729C71.7952 42.8741 71.8109 43.0247 71.848 43.1652C71.9479 43.5452 72.1747 43.7644 72.5677 43.7655C73.0022 43.7655 73.4368 43.6913 73.8994 43.6464V45.0706C72.9663 45.5282 72.0018 45.6159 71.0205 45.2078C70.4423 44.9672 70.147 44.4782 70.0257 43.8858C69.9673 43.5991 69.9415 43.3012 69.9392 43.009C69.9303 41.7859 69.9347 40.5617 69.9347 39.3386C69.9347 39.1801 69.9347 39.0216 69.9347 38.8125L69.9359 38.8114Z" fill="white"/>
<path d="M70.6236 26.5191V27.9827C69.7209 28.4448 68.7867 28.5257 67.8447 28.1795C66.9599 27.8535 66.6803 27.0947 66.6624 26.2336C66.6354 24.9802 66.6522 23.7267 66.65 22.4733C66.65 22.253 66.65 22.0326 66.65 21.7651C66.3143 21.7494 65.9977 21.7336 65.6473 21.7179V20.1407H66.6421V17.9531H68.497V20.1328H70.6472V21.7201H68.5509C68.5329 21.8719 68.5094 21.9821 68.5094 22.0933C68.5071 23.2737 68.5037 24.4529 68.5094 25.6333C68.5138 26.4517 68.8406 26.7608 69.6569 26.7001C69.9746 26.6765 70.2879 26.5843 70.6225 26.5202L70.6236 26.5191Z" fill="white"/>
<path d="M84.2749 43.5735V45.0124C83.4732 45.5778 81.9653 45.6149 81.1658 45.0922C80.7032 44.7898 80.4674 44.3401 80.3787 43.814C80.3271 43.5105 80.3046 43.1991 80.3024 42.8911C80.2934 41.7119 80.299 40.5315 80.299 39.3523C80.299 39.1927 80.299 39.0331 80.299 38.8318H79.3199V37.2356H80.2833V35.0322H82.137V37.2052H84.3153V38.8049H82.1999C82.1831 38.9454 82.1595 39.0555 82.1584 39.1668C82.1561 40.3461 82.1561 41.5264 82.1584 42.7056C82.1584 42.8226 82.1662 42.9417 82.1876 43.0575C82.2785 43.5274 82.5233 43.75 82.9994 43.777C83.2037 43.7893 83.4137 43.7837 83.6158 43.7522C83.8168 43.7207 84.011 43.6477 84.2749 43.5735Z" fill="white"/>
<path d="M99.7618 43.5725V45.0653C98.7748 45.5375 97.771 45.6409 96.7583 45.153C96.2463 44.9057 95.9847 44.4347 95.8769 43.8917C95.8174 43.5904 95.7915 43.2779 95.7893 42.9699C95.7792 41.7603 95.7848 40.5496 95.7848 39.3401C95.7848 39.1815 95.7848 39.023 95.7848 38.8241H94.8001V37.2289H95.7769V35.0278H97.6284V37.2132H99.8044V38.7915H97.6722C97.6588 38.9635 97.6419 39.0894 97.6408 39.2153C97.6385 40.3518 97.6374 41.4872 97.6408 42.6237C97.6408 42.7844 97.6487 42.9497 97.6835 43.1059C97.7778 43.532 98.0158 43.7422 98.4481 43.7714C98.667 43.786 98.8916 43.7804 99.1094 43.7478C99.3104 43.7186 99.5046 43.6422 99.7618 43.5691V43.5725Z" fill="white"/>
<path d="M146.12 17.0653H147.921V28.2213H146.12V17.0653Z" fill="white"/>
<path d="M152.14 28.2216H150.345V17.0701H152.14V28.2216Z" fill="white"/>
<path d="M110.208 17.078V28.2183H108.407V17.078H110.208Z" fill="white"/>
<path d="M128.695 11.1485H126.894V0.010498H128.695V11.1485Z" fill="white"/>
<path d="M61.9563 28.2222H60.1318V20.1699H61.9283V21.7257L62.0091 21.7786C62.5997 20.6668 63.4351 19.9574 64.7779 20.008V21.9303C64.5006 21.9719 64.2244 21.9978 63.956 22.0573C63.1139 22.2451 62.5233 22.7554 62.2426 23.5592C62.0854 24.01 61.9934 24.5012 61.972 24.979C61.9305 25.9053 61.9586 26.835 61.9574 27.7635C61.9574 27.9074 61.9574 28.0513 61.9574 28.221L61.9563 28.2222Z" fill="white"/>
<path d="M119.114 28.2288H117.302V17.5427H119.114V28.2288Z" fill="white"/>
<path d="M48.5071 34.603H50.3261V45.279H48.5071V34.603Z" fill="white"/>
<path d="M114.347 11.151H112.548V3.10437H114.347V11.1499V11.151Z" fill="white"/>
<path d="M154.575 20.1532H156.368V28.2133H154.575V20.1532Z" fill="white"/>
<path d="M97.1573 28.2228H95.3463V20.1716H97.1573V28.2228Z" fill="white"/>
<path d="M82.5256 20.1532H84.3176V28.2122H82.5256V20.1532Z" fill="white"/>
<path d="M74.3446 28.2215H72.5336V20.1726H74.3446V28.2215Z" fill="white"/>
<path d="M77.6191 45.3007H75.8361V37.2484H77.6191V45.3007Z" fill="white"/>
<path d="M154.485 18.8789V17.1635H156.432V18.8789H154.485Z" fill="white"/>
<path d="M97.2048 17.1757V18.8697H95.268V17.1757H97.2048Z" fill="white"/>
<path d="M75.7487 35.9583V34.2417H77.6855V35.9583H75.7487Z" fill="white"/>
<path d="M84.402 17.1644V18.8787H82.4539V17.1644H84.402Z" fill="white"/>
<path d="M74.4004 18.8764H72.4546V17.1654H74.4004V18.8764Z" fill="white"/>
<path d="M112.459 1.79389V0.102051H114.419V1.79389H112.459Z" fill="white"/>
</svg>
