<svg width="16" height="17" viewBox="0 0 16 17" fill="none" xmlns="http://www.w3.org/2000/svg">
<g clip-path="url(#clip0_319_14739)">
<path d="M2.99316 11.709C3.42539 11.0444 3.87382 10.4285 4.38168 9.91523C4.88954 9.40197 5.52167 8.97515 6.24564 8.94813C6.60763 8.93193 7.00204 9.04538 7.3262 9.20747C7.95833 9.52083 8.37975 10.1097 9.10912 10.315C9.41708 10.4015 10.2167 10.623 10.3788 10.7581C10.5409 10.8931 10.6003 11.1309 10.5409 11.3362C10.4922 11.5091 10.2815 11.6441 10.114 11.6982C9.82229 11.7954 8.38515 11.4658 7.79625 11.2929" stroke="black" stroke-width="0.79" stroke-linecap="round" stroke-linejoin="round"/>
<path d="M10.5625 11.0606L12.9505 9.80717C12.9505 9.80717 13.4151 9.65049 13.6583 10.0449C13.9014 10.4393 13.5934 10.7256 13.5934 10.7256L9.95195 13.4378C9.4603 13.8052 8.81736 13.9079 8.23386 13.7134L6.33748 13.0813C6.24023 13.0488 6.13218 13.0813 6.06194 13.1515L5.68915 13.5675" stroke="black" stroke-width="0.79" stroke-linecap="round" stroke-linejoin="round"/>
<path d="M5.72266 13.7096L2.71294 11.6886C2.53705 11.5705 2.29873 11.6174 2.18063 11.7933L1.21384 13.2331C1.09574 13.409 1.14258 13.6473 1.31847 13.7654L4.32819 15.7863C4.50408 15.9044 4.7424 15.8576 4.8605 15.6817L5.82729 14.2419C5.94539 14.066 5.89855 13.8277 5.72266 13.7096Z" stroke="black" stroke-width="0.79" stroke-linecap="round" stroke-linejoin="round"/>
<path d="M5.41369 6.54395L4.18726 7.77578H14.5876L13.4314 6.61958" stroke="black" stroke-width="0.79" stroke-linecap="round" stroke-linejoin="round"/>
<path d="M5.41369 4.67444L4.18726 5.90087H14.5876L13.4314 4.75008" stroke="black" stroke-width="0.79" stroke-linecap="round" stroke-linejoin="round"/>
<path d="M6.06743 2.00012L4.18726 3.88029H14.5876L12.7075 2.00012H6.06743Z" stroke="black" stroke-width="0.79" stroke-linecap="round" stroke-linejoin="round"/>
</g>
<defs>
<clipPath id="clip0_319_14739">
<rect width="16" height="16" fill="white" transform="translate(0 0.580017)"/>
</clipPath>
</defs>
</svg>
