<svg width="45" height="42" viewBox="0 0 45 42" fill="none" xmlns="http://www.w3.org/2000/svg">
<path d="M13.7337 4L8.97369 8.77H35.3437L30.5837 4H13.7337Z" stroke="black" stroke-width="1.37" stroke-linecap="round" stroke-linejoin="round"/>
<path d="M12.0937 10.27L8.97369 13.39H35.3437L32.4137 10.46" stroke="black" stroke-width="1.37" stroke-linecap="round" stroke-linejoin="round"/>
<path d="M12.0937 14.89L8.97369 18.01H35.3437L32.4137 15.08" stroke="black" stroke-width="1.37" stroke-linecap="round" stroke-linejoin="round"/>
<path d="M11.038 26.5237C12.138 24.8437 13.268 23.2737 14.558 21.9737C15.848 20.6737 17.458 19.5837 19.278 19.5137C20.198 19.4737 21.198 19.7637 22.018 20.1737C23.618 20.9737 24.688 22.4637 26.538 22.9837C27.318 23.2037 29.348 23.7637 29.758 24.1037C30.168 24.4437 30.318 25.0537 30.168 25.5637C30.038 25.9937 29.518 26.3437 29.088 26.4837C28.348 26.7337 24.708 25.8937 23.208 25.4637" stroke="black" stroke-width="1.37" stroke-linecap="round" stroke-linejoin="round"/>
<path d="M30.2279 24.8837L36.2879 21.7037C36.2879 21.7037 37.4579 21.3037 38.0779 22.3037C38.6979 23.3037 37.9179 24.0337 37.9179 24.0337L28.6879 30.9137C27.4379 31.8437 25.8079 32.1037 24.3279 31.6137L19.5279 30.0137C19.2779 29.9337 19.0079 30.0037 18.8279 30.1937L17.8879 31.2437" stroke="black" stroke-width="1.37" stroke-linecap="round" stroke-linejoin="round"/>
<path d="M17.9608 31.5915L10.3478 26.4797C9.8985 26.1779 9.28965 26.2976 8.98793 26.747L6.54628 30.3833C6.24456 30.8326 6.36424 31.4415 6.81358 31.7432L14.4266 36.855C14.8759 37.1567 15.4848 37.0371 15.7865 36.5877L18.2281 32.9514C18.5299 32.5021 18.4102 31.8932 17.9608 31.5915Z" stroke="black" stroke-width="1.37" stroke-linecap="round" stroke-linejoin="round"/>
</svg>
