<svg width="84" height="82" viewBox="0 0 84 82" fill="none" xmlns="http://www.w3.org/2000/svg">
<path d="M13.3099 31.48H12.7399C12.5699 31.48 12.3999 31.53 12.2599 31.62L9.99994 33.09C9.99994 33.09 9.96994 33.11 9.94994 33.12C9.88994 33.17 9.83994 33.22 9.78994 33.27C9.68994 33.38 9.61994 33.51 9.58994 33.65C9.56994 33.72 9.55994 33.79 9.55994 33.86C9.55994 34.25 9.80994 34.58 10.1499 34.69L11.3299 33.92L12.3599 33.25H12.4199V42.29C12.4199 42.78 12.8199 43.18 13.3099 43.18C13.7999 43.18 14.1999 42.78 14.1999 42.29V32.36C14.1999 31.88 13.7999 31.48 13.3099 31.48Z" fill="black"/>
<path d="M45.5699 53.19H41.2999V53.11L43.4999 50.81C44.1699 50.12 44.6999 49.54 45.0799 49.06C45.4599 48.57 45.7199 48.14 45.8799 47.74C46.0299 47.35 46.1099 46.95 46.1099 46.54C46.1099 45.94 45.9599 45.41 45.6599 44.93C45.3599 44.46 44.9399 44.08 44.4099 43.81C43.8799 43.53 43.2599 43.39 42.5699 43.39C41.8799 43.39 41.2599 43.53 40.7199 43.81C40.1799 44.09 39.7499 44.48 39.4399 44.99C39.2699 45.27 39.1499 45.57 39.0699 45.9C38.9699 46.34 39.3299 46.76 39.7799 46.76H39.9499C40.2599 46.76 40.5199 46.58 40.6099 46.31C40.6299 46.24 40.6399 46.18 40.6599 46.12C40.6899 45.98 40.7399 45.85 40.8099 45.72C40.9699 45.42 41.1999 45.19 41.4999 45.03C41.7899 44.87 42.1399 44.79 42.5299 44.79C42.9199 44.79 43.2499 44.86 43.5499 45.01C43.8499 45.15 44.0799 45.36 44.2599 45.63C44.4299 45.9 44.5199 46.22 44.5199 46.59C44.5199 46.91 44.4499 47.22 44.3199 47.51C44.1899 47.79 43.9999 48.1 43.7299 48.42C43.4699 48.74 43.1399 49.11 42.7399 49.53L39.1899 53.21C39.0599 53.34 38.9899 53.52 38.9899 53.71V53.91C38.9899 54.31 39.3099 54.63 39.7099 54.63H45.5699C45.9599 54.63 46.2899 54.31 46.2899 53.91C46.2899 53.51 45.9599 53.19 45.5699 53.19Z" fill="black"/>
<path d="M75.33 61.31C74.9 60.82 74.3 60.51 73.53 60.39V60.3C74.13 60.15 74.62 59.84 74.98 59.39C75.35 58.93 75.53 58.38 75.53 57.73C75.53 57.16 75.38 56.63 75.09 56.15C74.79 55.67 74.37 55.29 73.83 55C73.28 54.71 72.64 54.57 71.89 54.57C71.18 54.57 70.54 54.7 69.95 54.97C69.37 55.24 68.9 55.61 68.55 56.09C68.42 56.27 68.31 56.46 68.24 56.66C68.19 56.74 68.12 57.02 68.12 57.06C68.12 57.41 68.44 57.68 68.76 57.74H69.15C69.43 57.72 69.68 57.55 69.77 57.31C69.77 57.31 69.78 57.24 69.8 57.21C69.85 57.06 69.93 56.94 70.02 56.83C70.22 56.57 70.49 56.37 70.81 56.24C71.14 56.1 71.49 56.03 71.87 56.03C72.27 56.03 72.61 56.1 72.91 56.26C73.2 56.41 73.43 56.62 73.59 56.88C73.75 57.15 73.83 57.46 73.83 57.82C73.83 58.2 73.74 58.52 73.55 58.8C73.37 59.08 73.11 59.3 72.78 59.45C72.46 59.61 72.08 59.68 71.65 59.68H71.29C71.29 59.68 71.13 59.72 71.1 59.74C70.84 59.84 70.66 60.1 70.66 60.39C70.66 60.64 70.79 60.87 70.98 61C71.06 61.05 71.17 61.09 71.27 61.11H71.65C72.18 61.11 72.64 61.2 73.02 61.37C73.4 61.54 73.69 61.77 73.89 62.07C74.09 62.37 74.19 62.71 74.19 63.1C74.19 63.47 74.09 63.8 73.89 64.09C73.69 64.38 73.41 64.6 73.06 64.76C72.7 64.92 72.3 65 71.84 65C71.42 65 71.04 64.93 70.7 64.79C70.36 64.65 70.09 64.46 69.88 64.21C69.78 64.09 69.7 63.97 69.64 63.83C69.64 63.8 69.64 63.78 69.61 63.75C69.51 63.5 69.26 63.32 68.97 63.32H68.61C68.36 63.32 68.14 63.45 68.01 63.64C67.96 63.72 67.92 63.82 67.9 63.92C67.89 63.96 67.89 64 67.89 64.04C67.89 64.08 67.89 64.13 67.9 64.17C67.9 64.17 67.9 64.19 67.9 64.21C67.92 64.26 67.94 64.32 67.97 64.37C67.97 64.38 67.97 64.39 67.98 64.39C68.06 64.6 68.17 64.79 68.31 64.98C68.66 65.46 69.14 65.83 69.75 66.1C70.36 66.37 71.06 66.5 71.84 66.5C72.62 66.5 73.34 66.36 73.96 66.07C74.57 65.78 75.06 65.38 75.42 64.88C75.77 64.37 75.95 63.8 75.95 63.16C75.95 62.42 75.74 61.81 75.32 61.31H75.33Z" fill="black"/>
<path d="M1.81995 24.7V78.53H22.8899V24.7H10.5899" stroke="black" stroke-width="2.5" stroke-linecap="round" stroke-linejoin="round"/>
<path d="M32.1 35.2899V78.5299H53.17V35.2899H39.6" stroke="black" stroke-width="2.5" stroke-linecap="round" stroke-linejoin="round"/>
<path d="M82.18 46.47H61.11V78.53H82.18V46.47Z" stroke="black" stroke-width="2.5" stroke-linecap="round" stroke-linejoin="round"/>
<path d="M13.7899 17.53V3.47H42.7099V25.42H71.6399V40.48" stroke="black" stroke-width="2.5" stroke-linecap="round" stroke-linejoin="round"/>
</svg>
