<svg width="16" height="17" viewBox="0 0 16 17" fill="none" xmlns="http://www.w3.org/2000/svg">
<path d="M10.865 3.61298H12.1017C12.654 3.61298 13.1017 4.06069 13.1017 4.61298V15.0001C13.1017 15.5523 12.654 16.0001 12.1017 16.0001H3C2.44771 16.0001 2 15.5523 2 15.0001V4.61298C2 4.06069 2.44772 3.61298 3 3.61298H4.75968" stroke="black" stroke-width="0.79" stroke-linecap="round" stroke-linejoin="round"/>
<path d="M10.8524 4.88574H11.4613C11.7375 4.88574 11.9613 5.1096 11.9613 5.38574V14.2274C11.9613 14.5035 11.7375 14.7274 11.4613 14.7274H3.64044C3.3643 14.7274 3.14044 14.5035 3.14044 14.2274V5.38574C3.14044 5.1096 3.3643 4.88574 3.64044 4.88574H4.6652" stroke="black" stroke-width="0.79" stroke-linecap="round" stroke-linejoin="round"/>
<path d="M7.5509 8.39517H10.865" stroke="black" stroke-width="0.79" stroke-linecap="round" stroke-linejoin="round"/>
<path d="M7.5509 11.3754H10.865" stroke="black" stroke-width="0.79" stroke-linecap="round" stroke-linejoin="round"/>
<path d="M6.27183 7.59503H4.66516V9.2017H6.27183V7.59503Z" stroke="black" stroke-width="0.79" stroke-linecap="round" stroke-linejoin="round"/>
<path d="M9.0567 2.64273C9.0567 2.28989 8.76687 2.00006 8.41403 2.00006H7.1602C6.80737 2.00006 6.51754 2.28989 6.51754 2.64273C6.51754 2.99556 6.22771 3.28539 5.87487 3.28539H5.31411C4.96128 3.28539 4.67145 3.57522 4.67145 3.92806V4.73454C4.67145 5.08738 4.96128 5.37721 5.31411 5.37721H10.2286C10.5815 5.37721 10.8713 5.08738 10.8713 4.73454V3.92806C10.8713 3.57522 10.5815 3.28539 10.2286 3.28539H9.70567C9.35283 3.28539 9.063 2.99556 9.063 2.64273H9.0567Z" stroke="black" stroke-width="0.79" stroke-linecap="round" stroke-linejoin="round"/>
<path d="M6.27183 10.5689H4.66516V12.1756H6.27183V10.5689Z" stroke="black" stroke-linecap="round" stroke-linejoin="round"/>
</svg>
