<svg width="88" height="82" viewBox="0 0 88 82" fill="none" xmlns="http://www.w3.org/2000/svg">
<path d="M31.355 24.915C32.445 24.065 33.815 23.555 35.295 23.555H65.115C68.645 23.555 71.525 26.435 71.525 29.965V52.685C71.525 54.555 70.715 56.245 69.425 57.425" stroke="black" stroke-width="2.5" stroke-linecap="round" stroke-linejoin="round"/>
<path d="M25.395 29.255C26.445 28.495 27.735 28.055 29.125 28.055H58.945C62.475 28.055 65.355 30.935 65.355 34.465V57.185C65.355 59.175 64.435 60.965 63.005 62.135" stroke="black" stroke-width="2.5" stroke-linecap="round" stroke-linejoin="round"/>
<path d="M52.715 32.315H22.895C19.3548 32.315 16.485 35.1849 16.485 38.725V61.455C16.485 64.9951 19.3548 67.865 22.895 67.865H52.715C56.2551 67.865 59.125 64.9951 59.125 61.455V38.725C59.125 35.1849 56.2551 32.315 52.715 32.315Z" stroke="black" stroke-width="2.5" stroke-linecap="round" stroke-linejoin="round"/>
<path d="M23.4349 46.985H51.4049" stroke="black" stroke-width="2.5" stroke-linecap="round" stroke-linejoin="round"/>
<path d="M23.4349 53.985H51.4049" stroke="black" stroke-width="2.5" stroke-linecap="round" stroke-linejoin="round"/>
<path d="M83.015 5.42499H4.98496C3.31153 5.42499 1.95496 6.78157 1.95496 8.45499V73.545C1.95496 75.2184 3.31153 76.575 4.98496 76.575H83.015C84.6884 76.575 86.045 75.2184 86.045 73.545V8.45499C86.045 6.78157 84.6884 5.42499 83.015 5.42499Z" stroke="black" stroke-width="2.5" stroke-linecap="round" stroke-linejoin="round"/>
<path d="M2.30493 16.835H86.0449" stroke="black" stroke-width="2.5" stroke-linecap="round" stroke-linejoin="round"/>
<path d="M59.065 12.535C60.0204 12.535 60.795 11.7605 60.795 10.805C60.795 9.84956 60.0204 9.07501 59.065 9.07501C58.1095 9.07501 57.335 9.84956 57.335 10.805C57.335 11.7605 58.1095 12.535 59.065 12.535Z" fill="black"/>
<path d="M67.615 12.535C68.5705 12.535 69.345 11.7605 69.345 10.805C69.345 9.84956 68.5705 9.07501 67.615 9.07501C66.6596 9.07501 65.885 9.84956 65.885 10.805C65.885 11.7605 66.6596 12.535 67.615 12.535Z" fill="black"/>
<path d="M75.825 12.535C76.7804 12.535 77.555 11.7605 77.555 10.805C77.555 9.84956 76.7804 9.07501 75.825 9.07501C74.8695 9.07501 74.095 9.84956 74.095 10.805C74.095 11.7605 74.8695 12.535 75.825 12.535Z" fill="black"/>
<path d="M10.2949 10.805H38.5849" stroke="black" stroke-width="2.5" stroke-linecap="round" stroke-linejoin="round"/>
</svg>
