<svg width="104" height="82" viewBox="0 0 104 82" fill="none" xmlns="http://www.w3.org/2000/svg">
<path d="M50.835 8.11498L48.495 4.49498C48.065 3.82498 47.315 3.41498 46.515 3.41498H37.255C35.995 3.41498 34.985 4.43498 34.985 5.68498V28.665C34.985 29.925 36.005 30.935 37.255 30.935H66.225C67.485 30.935 68.495 29.915 68.495 28.665V10.395C68.495 9.13498 67.475 8.12498 66.225 8.12498H50.835V8.11498Z" stroke="black" stroke-width="2.5" stroke-linecap="round" stroke-linejoin="round"/>
<path d="M13.725 62.045L12.035 59.415C11.725 58.925 11.185 58.635 10.605 58.635H3.895C2.985 58.635 2.245 59.375 2.245 60.285V76.935C2.245 77.845 2.985 78.585 3.895 78.585H24.885C25.795 78.585 26.535 77.845 26.535 76.935V63.695C26.535 62.785 25.795 62.045 24.885 62.045H13.735H13.725Z" stroke="black" stroke-width="2.5" stroke-linecap="round" stroke-linejoin="round"/>
<path d="M51.085 62.045L49.395 59.415C49.085 58.925 48.545 58.635 47.965 58.635H41.255C40.345 58.635 39.605 59.375 39.605 60.285V76.935C39.605 77.845 40.345 78.585 41.255 78.585H62.245C63.155 78.585 63.895 77.845 63.895 76.935V63.695C63.895 62.785 63.155 62.045 62.245 62.045H51.095H51.085Z" stroke="black" stroke-width="2.5" stroke-linecap="round" stroke-linejoin="round"/>
<path d="M88.945 62.045L87.255 59.415C86.945 58.925 86.405 58.635 85.825 58.635H79.115C78.205 58.635 77.465 59.375 77.465 60.285V76.935C77.465 77.845 78.205 78.585 79.115 78.585H100.105C101.015 78.585 101.755 77.845 101.755 76.935V63.695C101.755 62.785 101.015 62.045 100.105 62.045H88.955H88.945Z" stroke="black" stroke-width="2.5" stroke-linecap="round" stroke-linejoin="round"/>
<path d="M51.745 35.4449V47.0449" stroke="black" stroke-width="2.5" stroke-linecap="round" stroke-linejoin="round"/>
<path d="M14.385 47.485V42.805H89.605V48.185" stroke="black" stroke-width="2.5" stroke-linecap="round" stroke-linejoin="round"/>
<path d="M14.305 54.215C15.8349 54.215 17.075 52.9748 17.075 51.445C17.075 49.9152 15.8349 48.675 14.305 48.675C12.7752 48.675 11.535 49.9152 11.535 51.445C11.535 52.9748 12.7752 54.215 14.305 54.215Z" stroke="black" stroke-width="2.5" stroke-linecap="round" stroke-linejoin="round"/>
<path d="M51.745 54.215C53.2748 54.215 54.515 52.9748 54.515 51.445C54.515 49.9152 53.2748 48.675 51.745 48.675C50.2151 48.675 48.975 49.9152 48.975 51.445C48.975 52.9748 50.2151 54.215 51.745 54.215Z" stroke="black" stroke-width="2.5" stroke-linecap="round" stroke-linejoin="round"/>
<path d="M89.605 54.215C91.1348 54.215 92.375 52.9748 92.375 51.445C92.375 49.9152 91.1348 48.675 89.605 48.675C88.0751 48.675 86.835 49.9152 86.835 51.445C86.835 52.9748 88.0751 54.215 89.605 54.215Z" stroke="black" stroke-width="2.5" stroke-linecap="round" stroke-linejoin="round"/>
<path d="M44.725 15.835H58.815" stroke="black" stroke-width="2.5" stroke-linecap="round" stroke-linejoin="round"/>
<path d="M44.725 20.495H52.995" stroke="black" stroke-width="2.5" stroke-linecap="round" stroke-linejoin="round"/>
<path d="M9.40503 70.205H19.795" stroke="black" stroke-width="2.5" stroke-linecap="round" stroke-linejoin="round"/>
<path d="M46.595 70.205H56.975" stroke="black" stroke-width="2.5" stroke-linecap="round" stroke-linejoin="round"/>
<path d="M84.405 70.205H94.795" stroke="black" stroke-width="2.5" stroke-linecap="round" stroke-linejoin="round"/>
</svg>
