<svg width="16" height="17" viewBox="0 0 16 17" fill="none" xmlns="http://www.w3.org/2000/svg">
<g clip-path="url(#clip0_319_14762)">
<path d="M12.5021 6.62676C13.6479 6.55283 14.5597 5.61024 14.5597 4.44586C14.5597 3.28149 13.574 2.24649 12.3604 2.24649C11.1467 2.24649 10.2534 3.15828 10.1795 4.30417L7.87536 2.00006L5.41107 4.46435C5.4542 4.46435 5.49116 4.45203 5.53429 4.45203C6.74795 4.45203 7.73366 5.43774 7.73366 6.6514C7.73366 7.86506 6.74795 8.85078 5.53429 8.85078C4.32062 8.85078 3.33491 7.86506 3.33491 6.6514C3.33491 6.60827 3.34723 6.56515 3.34723 6.52819L1.01232 8.8631L1 8.88158L7.9308 15.8124L14.8 8.94319L12.4959 6.63908L12.5021 6.62676Z" stroke="black" stroke-linecap="round" stroke-linejoin="round"/>
</g>
<defs>
<clipPath id="clip0_319_14762">
<rect width="16" height="16" fill="white" transform="translate(0 0.580017)"/>
</clipPath>
</defs>
</svg>
