<svg width="218" height="71" viewBox="0 0 218 71" fill="none" xmlns="http://www.w3.org/2000/svg">
<path d="M41.81 36.62H32.42C32.34 36.46 32.24 36.29 32.16 36.11C31.59 34.85 31.04 33.59 30.46 32.33C29.8 30.88 28.62 30.14 27.07 30.13C22.89 30.09 18.72 30.09 14.54 30.13C12.96 30.14 11.77 30.9 11.1 32.37C10.46 33.77 9.84 35.18 9.2 36.6H0C5.67 24.59 11.31 12.64 16.96 0.670044H24.84C30.47 12.59 36.11 24.56 41.81 36.62ZM20.81 10.78C20.71 10.95 20.66 11.02 20.62 11.1C19.1 14.49 17.6 17.88 16.06 21.26C15.72 22.01 16.02 22.85 17.11 22.82C19.01 22.76 20.92 22.8 22.83 22.8C23.47 22.8 24.1 22.81 24.74 22.8C25.31 22.78 25.68 22.44 25.67 21.93C25.67 21.67 25.57 21.4 25.46 21.15C24.76 19.58 24.05 18.01 23.35 16.44C22.52 14.58 21.69 12.72 20.82 10.78H20.81Z" fill="black"/>
<path d="M54.0699 45.14V53.07H0.939941V45.14H54.0699Z" fill="black"/>
<path d="M0.929932 61.63H54.0499V69.58H0.929932V61.63Z" fill="black"/>
<path d="M53.85 36.6101H45.71V0.680054H53.85V36.6101Z" fill="black"/>
<path d="M79.5599 6.49003C80.4299 7.71003 81.2799 8.91003 82.1599 10.14H80.1199C79.3499 9.05003 78.5499 7.92003 77.7499 6.79003H75.5999V10.15H73.8899V0.430034C74.0199 0.430034 74.1399 0.410034 74.2499 0.410034C75.5699 0.410034 76.8899 0.410034 78.2099 0.410034C78.9499 0.410034 79.6599 0.520034 80.3199 0.860034C81.2699 1.36003 81.7799 2.16003 81.8399 3.22003C81.9399 4.83003 81.2699 5.84003 79.7599 6.42003C79.7099 6.44003 79.6599 6.46003 79.5599 6.51003V6.49003ZM75.6199 5.25003C76.1099 5.25003 76.5599 5.25003 77.0199 5.25003C77.5599 5.24003 78.0999 5.25003 78.6299 5.19003C79.3699 5.11003 79.9199 4.64003 80.0699 4.02003C80.3099 3.04003 79.8099 2.21003 78.8099 2.06003C78.1499 1.96003 77.4699 1.99003 76.7999 1.97003C76.4099 1.96003 76.0299 1.97003 75.6299 1.97003V5.25003H75.6199Z" fill="black"/>
<path d="M174.51 27.07C174.7 26.68 174.9 26.27 175.08 25.92C175.68 26.13 176.24 26.37 176.82 26.52C177.41 26.68 178.02 26.67 178.62 26.52C179.37 26.32 179.84 25.84 180 25.09C180.08 24.72 180.07 24.33 180.06 23.92C179.26 24.86 178.27 25.26 177.07 25.12C176.26 25.03 175.58 24.69 175.02 24.09C173.83 22.81 173.83 20.57 175 19.29C175.68 18.55 176.53 18.21 177.52 18.21C178.51 18.21 179.34 18.61 179.99 19.37C180.01 19.36 180.04 19.34 180.06 19.33V18.38H181.72C181.73 18.49 181.75 18.58 181.75 18.67C181.75 20.57 181.75 22.46 181.74 24.36C181.74 24.77 181.68 25.19 181.59 25.59C181.32 26.74 180.58 27.48 179.45 27.78C177.82 28.21 176.25 28.03 174.75 27.27C174.69 27.24 174.63 27.2 174.58 27.16C174.56 27.15 174.55 27.12 174.51 27.07ZM177.94 23.7C179.17 23.7 180.09 22.82 180.09 21.67C180.09 20.51 179.13 19.62 177.9 19.64C176.7 19.65 175.82 20.52 175.83 21.69C175.83 22.85 176.73 23.71 177.94 23.7Z" fill="black"/>
<path d="M137.87 9.18V10.15H136.21V0H137.86V3.88C137.86 3.88 137.94 3.94 137.98 3.97C138.01 3.9 138.02 3.81 138.07 3.75C139.42 2.06 141.88 2.45 143 3.94C143.39 4.46 143.64 5.03 143.73 5.67C143.88 6.75 143.79 7.79 143.2 8.74C142.08 10.56 139.48 10.9 138.09 9.31C138.04 9.25 138.03 9.16 138 9.08C137.96 9.11 137.91 9.14 137.87 9.18ZM142.1 6.51C142.06 6.26 142.04 6 141.98 5.76C141.76 4.85 141.01 4.19 140.15 4.14C139.19 4.08 138.39 4.58 138.02 5.47C137.78 6.04 137.76 6.62 137.91 7.21C138.24 8.47 139.48 9.16 140.66 8.75C141.53 8.45 142.07 7.59 142.1 6.52V6.51Z" fill="black"/>
<path d="M98.6699 2.80994H100.34V3.88994C100.34 3.88994 100.42 3.93994 100.47 3.96994C100.49 3.90994 100.5 3.82994 100.54 3.77994C101.86 2.07994 104.39 2.37994 105.57 4.03994C106.54 5.39994 106.54 7.58994 105.57 8.93994C104.37 10.6099 101.86 10.8399 100.54 9.24994C100.51 9.20994 100.49 9.14994 100.46 9.10994C100.43 9.12994 100.4 9.13994 100.37 9.15994V12.3799H98.6799V2.80994H98.6699ZM104.59 6.54994C104.59 6.54994 104.57 6.54994 104.56 6.54994C104.55 6.37994 104.55 6.19994 104.52 6.02994C104.4 5.08994 103.69 4.29994 102.83 4.15994C101.92 3.99994 101.03 4.42994 100.61 5.25994C100.16 6.14994 100.18 7.05994 100.72 7.89994C101.19 8.62994 101.9 8.93994 102.76 8.82994C103.57 8.71994 104.1 8.24994 104.38 7.48994C104.49 7.18994 104.52 6.86994 104.59 6.55994V6.54994Z" fill="black"/>
<path d="M77.32 15.91H78.93C80.35 19.16 81.78 22.42 83.22 25.72H81.4C81.08 24.96 80.75 24.19 80.42 23.4H75.8C75.47 24.16 75.14 24.94 74.8 25.73H73.04C74.48 22.44 75.9 19.18 77.33 15.92L77.32 15.91ZM79.77 21.82C79.21 20.53 78.67 19.28 78.1 17.96C77.53 19.29 77 20.54 76.45 21.82H79.77Z" fill="black"/>
<path d="M115.35 6.47006C115.35 8.64006 113.63 10.3401 111.4 10.3401C109.2 10.3401 107.5 8.69006 107.49 6.53006C107.48 4.34006 109.18 2.65006 111.41 2.64006C113.62 2.63006 115.34 4.30006 115.35 6.47006ZM109.19 6.47006C109.19 8.13006 110.64 9.23006 112.16 8.73006C113.14 8.41006 113.73 7.44006 113.65 6.28006C113.55 4.79006 112.15 3.80006 110.73 4.22006C109.79 4.50006 109.19 5.38006 109.19 6.48006V6.47006Z" fill="black"/>
<path d="M154.67 8.07999C155.01 8.37999 155.32 8.65999 155.65 8.94999C155.18 9.54999 154.58 9.94999 153.87 10.17C153.07 10.41 152.25 10.43 151.45 10.17C150.06 9.71999 149.22 8.76999 148.93 7.33999C148.74 6.39999 148.85 5.48999 149.27 4.62999C149.98 3.17999 151.41 2.45999 153.09 2.68999C154.47 2.87999 155.56 3.96999 155.86 5.46999C155.92 5.77999 155.94 6.10999 155.97 6.42999C155.99 6.62999 155.97 6.82999 155.97 7.07999H150.54C150.67 7.85999 151 8.42999 151.68 8.72999C152.8 9.21999 153.78 8.89999 154.66 8.07999H154.67ZM154.25 5.94999C154.29 4.91999 153.51 4.06999 152.51 4.04999C151.46 4.01999 150.6 4.84999 150.57 5.94999H154.24H154.25Z" fill="black"/>
<path d="M90.23 7.08997H84.79C84.92 7.83997 85.23 8.41997 85.89 8.71997C87.02 9.22997 88.01 8.90997 88.9 8.07997C89.23 8.36997 89.54 8.64996 89.88 8.94997C89.35 9.59997 88.7 10.04 87.9 10.21C86.45 10.54 85.14 10.28 84.08 9.17997C82.56 7.60997 82.8 4.74997 84.5 3.37997C86.11 2.08997 89.52 2.25997 90.13 5.65997C90.18 5.94997 90.19 6.24997 90.21 6.53997C90.22 6.69997 90.21 6.85997 90.21 7.08997H90.23ZM88.52 5.94997C88.44 4.70997 87.62 3.95997 86.5 4.03997C85.58 4.10997 84.77 5.03997 84.85 5.94997H88.52Z" fill="black"/>
<path d="M128.88 38.19H123.48C123.58 38.89 123.85 39.45 124.44 39.76C125.6 40.38 126.64 40.07 127.59 39.21C127.92 39.5 128.24 39.78 128.57 40.08C127.72 41.11 126.63 41.53 125.35 41.46C123.83 41.37 122.65 40.67 122.08 39.23C121.49 37.73 121.64 36.25 122.71 34.99C123.7 33.83 125 33.52 126.44 33.93C127.85 34.33 128.53 35.39 128.81 36.77C128.9 37.23 128.93 37.7 128.87 38.2L128.88 38.19ZM123.51 37.05H127.2C127.13 35.91 126.34 35.12 125.33 35.15C124.34 35.18 123.5 36.05 123.51 37.05Z" fill="black"/>
<path d="M155.93 22.63C156.06 23.41 156.39 23.96 157.04 24.29C157.92 24.74 158.85 24.54 160.07 23.66C160.38 23.94 160.7 24.22 161.04 24.52C160.49 25.2 159.81 25.64 158.98 25.8C157.59 26.08 156.32 25.83 155.3 24.8C153.72 23.22 153.94 20.28 155.71 18.92C157.38 17.63 160.72 17.9 161.3 21.24C161.38 21.68 161.37 22.14 161.41 22.63H155.95H155.93ZM155.98 21.5H159.66C159.57 20.3 158.77 19.54 157.7 19.61C156.74 19.67 155.94 20.54 155.97 21.5H155.98Z" fill="black"/>
<path d="M190.43 22.65H185.03C185.16 23.42 185.5 24.02 186.2 24.31C187.31 24.77 188.28 24.47 189.15 23.65C189.48 23.94 189.8 24.22 190.14 24.52C189.77 25 189.32 25.36 188.78 25.58C187.61 26.06 186.44 26.05 185.31 25.48C183.88 24.76 183.14 23.22 183.39 21.47C183.59 20.05 184.31 18.97 185.69 18.45C187.43 17.79 189.8 18.39 190.38 21.08C190.49 21.58 190.52 22.09 190.45 22.66L190.43 22.65ZM188.73 21.5C188.77 20.42 187.91 19.56 186.86 19.6C185.87 19.64 184.99 20.57 185.08 21.5H188.73Z" fill="black"/>
<path d="M213.59 23.64C213.92 23.93 214.24 24.21 214.58 24.51C214.02 25.22 213.31 25.64 212.45 25.82C211.77 25.96 211.08 25.94 210.41 25.75C208.93 25.32 207.89 24.01 207.79 22.47C207.75 21.76 207.81 21.08 208.1 20.42C208.74 18.93 210.19 18.07 211.74 18.23C213.6 18.42 214.55 19.72 214.81 21.17C214.9 21.64 214.89 22.12 214.94 22.65H209.48C209.6 23.43 209.94 24.01 210.62 24.31C211.74 24.79 212.72 24.49 213.59 23.66V23.64ZM213.19 21.51C213.19 20.36 212.3 19.52 211.22 19.61C210.26 19.68 209.41 20.64 209.54 21.51H213.19Z" fill="black"/>
<path d="M126.62 25.72H124.99C124.98 25.45 124.96 25.2 124.95 24.91C124.85 24.99 124.78 25.05 124.71 25.11C123.69 25.99 122.53 26.12 121.31 25.64C120.4 25.29 119.96 24.56 119.95 23.59C119.95 22.61 120.43 21.88 121.33 21.51C122.21 21.15 123.12 21.17 124.03 21.29C124.33 21.33 124.63 21.41 124.93 21.48C125.07 20.63 124.6 19.96 123.76 19.8C123.01 19.65 122.29 19.77 121.58 20C121.42 20.05 121.25 20.11 121.04 20.19C120.89 19.75 120.75 19.32 120.6 18.88C121.34 18.5 122.11 18.33 122.91 18.28C123.5 18.24 124.09 18.27 124.67 18.43C125.71 18.73 126.33 19.43 126.54 20.49C126.6 20.78 126.62 21.08 126.62 21.37C126.62 22.73 126.62 24.09 126.62 25.44C126.62 25.52 126.61 25.6 126.6 25.72H126.62ZM124.99 22.58C124.33 22.33 123.67 22.24 122.99 22.32C122.7 22.35 122.41 22.45 122.15 22.58C121.74 22.79 121.59 23.17 121.62 23.63C121.65 24.07 121.89 24.38 122.29 24.5C122.63 24.6 123 24.65 123.35 24.63C124.5 24.56 125.12 23.76 124.98 22.58H124.99Z" fill="black"/>
<path d="M113.1 33.93H114.79V41.27H113.11V40.23C112.97 40.37 112.89 40.45 112.82 40.53C111.93 41.57 110.6 41.61 109.65 41.21C108.83 40.87 108.42 40.2 108.25 39.36C108.2 39.11 108.18 38.85 108.17 38.6C108.17 37.12 108.17 35.64 108.17 34.16C108.17 34.09 108.17 34.03 108.19 33.93H109.87V34.36C109.87 35.54 109.87 36.73 109.87 37.91C109.87 38.14 109.89 38.37 109.93 38.59C110.05 39.33 110.51 39.78 111.19 39.86C112.02 39.95 112.69 39.6 112.95 38.89C113.05 38.61 113.09 38.29 113.1 37.98C113.12 36.78 113.1 35.59 113.1 34.39V33.9V33.93Z" fill="black"/>
<path d="M142.4 25.72H140.73V18.38H142.37V19.33L142.44 19.37C142.52 19.29 142.6 19.22 142.67 19.14C143.48 18.26 144.59 17.98 145.72 18.38C146.65 18.71 147.27 19.58 147.31 20.69C147.34 21.56 147.33 22.44 147.33 23.31C147.33 24.1 147.33 24.89 147.33 25.72H145.63C145.63 25.56 145.63 25.41 145.63 25.27C145.63 24.13 145.63 22.99 145.63 21.84C145.63 21.63 145.63 21.41 145.61 21.2C145.53 20.35 145.02 19.84 144.2 19.76C143.37 19.69 142.67 20.17 142.48 20.97C142.42 21.23 142.4 21.5 142.4 21.77C142.4 22.94 142.4 24.11 142.4 25.28C142.4 25.42 142.4 25.57 142.4 25.73V25.72Z" fill="black"/>
<path d="M77.97 33.9201H79.63V35.0001C79.79 34.8301 79.87 34.7401 79.96 34.6501C80.8 33.7301 82.18 33.4801 83.28 34.0701C84.14 34.5301 84.53 35.3101 84.55 36.2201C84.6 37.8701 84.57 39.5301 84.57 41.1801C84.57 41.2001 84.55 41.2301 84.53 41.2701H82.88V40.8301C82.88 39.6101 82.88 38.3801 82.88 37.1601C82.88 36.9301 82.86 36.7001 82.81 36.4801C82.65 35.7601 82.2 35.3701 81.47 35.3001C80.79 35.2301 80.14 35.5501 79.88 36.1601C79.75 36.4701 79.67 36.8301 79.67 37.1701C79.65 38.3801 79.67 39.5901 79.67 40.8001C79.67 40.9501 79.67 41.0901 79.67 41.2601H77.99V33.9101L77.97 33.9201Z" fill="black"/>
<path d="M193.73 25.7201H192.06V18.3901H193.73V19.3401C193.73 19.3401 193.78 19.3501 193.8 19.3601C193.86 19.2901 193.92 19.2301 193.98 19.1601C194.79 18.2501 195.95 17.9601 197.09 18.3901C197.95 18.7201 198.4 19.3901 198.58 20.2501C198.63 20.5001 198.66 20.7601 198.66 21.0101C198.66 22.4901 198.66 23.9701 198.66 25.4401C198.66 25.5201 198.65 25.6001 198.64 25.7001H196.99C196.99 25.5601 196.97 25.4201 196.97 25.2801C196.97 24.0801 196.97 22.8901 196.97 21.6901C196.97 21.4501 196.95 21.2101 196.91 20.9701C196.79 20.3101 196.38 19.8801 195.77 19.7701C195.02 19.6301 194.37 19.8901 194.01 20.4601C193.79 20.8201 193.74 21.2101 193.74 21.6201C193.74 22.8201 193.74 24.0101 193.74 25.2101V25.7001L193.73 25.7201Z" fill="black"/>
<path d="M123.53 10.17H121.88C121.88 10.02 121.86 9.86999 121.86 9.72999C121.86 8.55999 121.86 7.38999 121.86 6.21999C121.86 5.97999 121.84 5.73999 121.81 5.49999C121.7 4.76999 121.25 4.29999 120.57 4.20999C119.74 4.10999 119.09 4.41999 118.82 5.10999C118.7 5.42999 118.65 5.78999 118.64 6.12999C118.62 7.32999 118.64 8.51999 118.64 9.71999C118.64 9.85999 118.63 10.01 118.62 10.17H116.95C116.94 7.71999 116.95 5.28999 116.95 2.81999H118.63V3.76999C118.63 3.76999 118.68 3.78999 118.71 3.78999C118.8 3.69999 118.89 3.60999 118.97 3.50999C119.93 2.41999 121.43 2.49999 122.3 2.95999C123.02 3.34999 123.37 3.98999 123.51 4.76999C123.55 5.00999 123.57 5.24999 123.57 5.48999C123.57 6.93999 123.57 8.38999 123.57 9.83999C123.57 9.92999 123.56 10.02 123.55 10.16L123.53 10.17Z" fill="black"/>
<path d="M91.1799 9.21994C91.4499 8.80994 91.6899 8.43994 91.9199 8.08994C92.3399 8.30994 92.7099 8.52994 93.0999 8.68994C93.6399 8.90994 94.1999 9.04994 94.7899 8.89994C94.9199 8.86994 95.0499 8.82994 95.1599 8.75994C95.5999 8.47994 95.6199 7.90994 95.1899 7.62994C94.9699 7.48994 94.7099 7.38994 94.4599 7.29994C94.1199 7.17994 93.7699 7.08994 93.4199 6.96994C93.1399 6.86994 92.8699 6.75994 92.5999 6.62994C91.0699 5.86994 91.3799 3.90994 92.3499 3.22994C92.7099 2.97994 93.0899 2.80994 93.5199 2.71994C94.5599 2.50994 96.0899 2.88994 96.8599 3.52994C96.6499 3.89994 96.4399 4.28994 96.2199 4.65994C95.8299 4.48994 95.4599 4.31994 95.0899 4.17994C94.6799 4.02994 94.2599 3.94994 93.8199 4.02994C93.6699 4.05994 93.4999 4.10994 93.3699 4.19994C92.9999 4.43994 92.9799 4.91994 93.3299 5.18994C93.5399 5.34994 93.7899 5.45994 94.0399 5.55994C94.3799 5.68994 94.7299 5.77994 95.0699 5.90994C95.3799 6.02994 95.6999 6.14994 95.9899 6.30994C96.6599 6.66994 97.0499 7.20994 97.0399 7.98994C97.0299 8.80994 96.7199 9.47994 95.9799 9.89994C95.2699 10.2999 94.4999 10.3499 93.7099 10.2499C92.8299 10.1399 92.0299 9.80994 91.3099 9.28994C91.2699 9.25994 91.2199 9.22994 91.1699 9.19994L91.1799 9.21994Z" fill="black"/>
<path d="M130.54 3.53995C130.32 3.92995 130.11 4.29995 129.89 4.69995C129.64 4.57995 129.4 4.44995 129.16 4.34995C128.64 4.11995 128.1 3.95995 127.52 4.04995C127.35 4.07995 127.18 4.13995 127.04 4.22995C126.69 4.46995 126.67 4.91995 127 5.18995C127.16 5.31995 127.36 5.42995 127.56 5.49995C127.95 5.64995 128.35 5.75995 128.74 5.90995C129.07 6.02995 129.39 6.16995 129.7 6.32995C131.26 7.13995 130.86 9.25995 129.71 9.88996C129 10.28 128.26 10.36 127.49 10.28C126.52 10.18 125.65 9.81995 124.86 9.20995C125.12 8.81995 125.36 8.45995 125.61 8.07995C125.75 8.16995 125.86 8.23995 125.97 8.30996C126.51 8.64996 127.09 8.90995 127.73 8.94995C128.06 8.96995 128.4 8.91995 128.71 8.82995C128.99 8.75995 129.14 8.52995 129.16 8.21995C129.18 7.92996 129.04 7.72995 128.79 7.59995C128.56 7.47995 128.33 7.37995 128.09 7.29995C127.75 7.17996 127.4 7.08995 127.05 6.96995C126.78 6.87995 126.52 6.76995 126.27 6.63995C124.72 5.86995 125.01 3.86995 126.07 3.19995C126.42 2.97995 126.84 2.80995 127.25 2.71995C128.22 2.50995 129.67 2.87995 130.53 3.52995L130.54 3.53995Z" fill="black"/>
<path d="M85.8501 40.37C86.1301 39.95 86.3701 39.58 86.6201 39.2C86.8201 39.32 86.9801 39.43 87.1601 39.53C87.8401 39.91 88.5601 40.17 89.3501 40.06C89.5201 40.04 89.7001 39.99 89.8401 39.9C90.2901 39.63 90.3201 39.06 89.8801 38.77C89.6701 38.63 89.4301 38.53 89.1901 38.45C88.8501 38.33 88.5001 38.24 88.1501 38.12C87.8601 38.02 87.5701 37.91 87.2901 37.77C85.7701 37.01 86.0701 35.06 87.0301 34.36C87.7701 33.83 88.5901 33.73 89.4501 33.84C90.1501 33.93 90.8101 34.17 91.4101 34.54C91.4501 34.57 91.4901 34.61 91.5501 34.66C91.3401 35.04 91.1301 35.41 90.9101 35.82C90.7801 35.76 90.6701 35.69 90.5501 35.65C90.0601 35.48 89.5701 35.28 89.0601 35.17C88.8001 35.11 88.5001 35.19 88.2301 35.26C87.9701 35.33 87.8101 35.53 87.7801 35.82C87.7601 36.1 87.8901 36.3 88.1201 36.41C88.4301 36.57 88.7601 36.69 89.0801 36.82C89.5901 37.02 90.1301 37.17 90.6201 37.42C91.8101 38.03 91.9201 39.06 91.5501 40.05C91.3101 40.68 90.8001 41.06 90.1701 41.26C89.1201 41.59 88.0901 41.47 87.1001 41.05C86.6701 40.87 86.2701 40.62 85.8301 40.38L85.8501 40.37Z" fill="black"/>
<path d="M206.92 19.5C206.57 19.87 206.24 20.22 205.88 20.61C205.27 19.95 204.53 19.57 203.62 19.72C203.12 19.8 202.72 20.06 202.4 20.44C201.63 21.37 201.66 22.87 202.49 23.74C202.98 24.25 203.58 24.44 204.28 24.39C204.97 24.34 205.48 23.96 205.97 23.5C206.29 23.85 206.6 24.19 206.91 24.53C206.2 25.62 204.46 26.17 202.9 25.74C201.34 25.32 200.23 23.92 200.14 22.25C200.05 20.58 201.04 19.03 202.59 18.44C204.13 17.85 205.97 18.28 206.92 19.48V19.5Z" fill="black"/>
<path d="M115.14 19.49C114.79 19.87 114.45 20.23 114.1 20.6C114 20.51 113.91 20.43 113.82 20.35C113.08 19.69 112.24 19.47 111.32 19.89C110.41 20.32 110.05 21.13 110.06 22.1C110.07 23.23 110.73 24.11 111.73 24.34C112.52 24.52 113.22 24.32 113.84 23.8C113.94 23.71 114.04 23.62 114.17 23.51C114.48 23.86 114.79 24.21 115.11 24.57C114 26.12 111.34 26.37 109.73 25.02C108.03 23.6 107.9 20.93 109.45 19.34C110.99 17.76 113.67 17.8 115.15 19.48L115.14 19.49Z" fill="black"/>
<path d="M100.03 19.81H99.1201V18.42H99.9901C100.01 18.07 100.03 17.75 100.06 17.43C100.2 16.16 100.9 15.49 102.17 15.46C102.65 15.46 103.12 15.54 103.63 15.59V17.03C103.32 16.98 103.03 16.91 102.73 16.9C102.09 16.87 101.75 17.19 101.7 17.82C101.69 18 101.7 18.19 101.7 18.4H103.61V19.78H101.73V25.71H100.02V19.81H100.03Z" fill="black"/>
<path d="M151.28 19.79C151.28 20.6 151.28 21.34 151.28 22.08C151.28 22.55 151.27 23.02 151.28 23.49C151.3 24.06 151.58 24.34 152.14 24.33C152.48 24.33 152.83 24.24 153.2 24.19V25.51C152.33 25.93 151.42 26.02 150.51 25.6C150.02 25.38 149.77 24.94 149.67 24.43C149.61 24.14 149.59 23.84 149.59 23.55C149.59 22.46 149.59 21.37 149.59 20.28C149.59 20.14 149.59 19.99 149.59 19.81H148.69V18.36H149.58V16.35H151.27V18.34H153.25V19.79H151.28Z" fill="black"/>
<path d="M93.5499 35.3701H92.6499V33.9401H93.5299V31.9301H95.2299V33.9001H97.2099V35.3701H95.2799C95.2699 35.5001 95.2499 35.5901 95.2499 35.6801C95.2499 36.7701 95.2499 37.8601 95.2499 38.9401C95.2499 39.0701 95.2599 39.2101 95.2999 39.3401C95.3899 39.6901 95.5999 39.8901 95.9599 39.8901C96.3599 39.8901 96.7499 39.8201 97.1699 39.7801V41.0801C96.3199 41.5001 95.4399 41.5801 94.5399 41.2001C94.0099 40.9801 93.7399 40.5401 93.6299 40.0001C93.5799 39.7401 93.5499 39.4701 93.5499 39.2001C93.5499 38.0901 93.5499 36.9701 93.5499 35.8601C93.5499 35.7201 93.5499 35.5701 93.5499 35.3801V35.3701Z" fill="black"/>
<path d="M94.1699 24.17V25.5C93.3499 25.92 92.4899 26 91.6299 25.68C90.8199 25.38 90.5699 24.69 90.5499 23.91C90.5299 22.77 90.5499 21.63 90.5399 20.48C90.5399 20.28 90.5399 20.08 90.5399 19.83C90.2299 19.82 89.9399 19.8 89.6299 19.79V18.35H90.5399V16.36H92.2299V18.35H94.1899V19.8H92.2799C92.2599 19.94 92.2399 20.04 92.2399 20.14C92.2399 21.22 92.2399 22.29 92.2399 23.37C92.2399 24.12 92.5399 24.4 93.2899 24.34C93.5799 24.32 93.8699 24.23 94.1699 24.18V24.17Z" fill="black"/>
<path d="M106.63 39.7099V41.0199C105.9 41.5299 104.52 41.5699 103.79 41.0899C103.37 40.8099 103.15 40.4099 103.07 39.9299C103.02 39.6499 103 39.3699 103 39.0899C103 38.0199 103 36.9399 103 35.8699C103 35.7199 103 35.5799 103 35.3999H102.11V33.9499H102.99V31.9399H104.68V33.9199H106.67V35.3799H104.74C104.72 35.5099 104.7 35.6099 104.7 35.7099C104.7 36.7799 104.7 37.8599 104.7 38.9299C104.7 39.0399 104.7 39.1499 104.73 39.2499C104.81 39.6799 105.04 39.8799 105.47 39.9099C105.66 39.9199 105.85 39.9099 106.03 39.8899C106.21 39.8599 106.39 39.7899 106.63 39.7299V39.7099Z" fill="black"/>
<path d="M120.76 39.7V41.06C119.86 41.49 118.94 41.58 118.02 41.14C117.55 40.91 117.31 40.49 117.22 39.99C117.17 39.72 117.14 39.43 117.14 39.15C117.14 38.05 117.14 36.95 117.14 35.84C117.14 35.7 117.14 35.55 117.14 35.37H116.24V33.92H117.13V31.91H118.82V33.9H120.81V35.34H118.86C118.85 35.5 118.83 35.61 118.83 35.73C118.83 36.77 118.83 37.8 118.83 38.84C118.83 38.99 118.83 39.14 118.87 39.28C118.96 39.67 119.17 39.86 119.57 39.89C119.77 39.9 119.98 39.89 120.17 39.87C120.35 39.84 120.53 39.77 120.76 39.71V39.7Z" fill="black"/>
<path d="M163.05 15.55H164.69V25.72H163.05V15.55Z" fill="black"/>
<path d="M168.54 25.7201H166.9V15.5601H168.54V25.7201Z" fill="black"/>
<path d="M130.29 15.5601V25.7101H128.65V15.5601H130.29Z" fill="black"/>
<path d="M147.16 10.16H145.52V0.0100098H147.16V10.16Z" fill="black"/>
<path d="M86.2701 25.72H84.6101V18.38H86.2501V19.8L86.3201 19.85C86.8601 18.84 87.6201 18.19 88.8501 18.24V19.99C88.6001 20.03 88.3501 20.05 88.1001 20.11C87.3301 20.28 86.7901 20.75 86.5401 21.48C86.4001 21.89 86.3101 22.34 86.2901 22.77C86.2501 23.61 86.2801 24.46 86.2801 25.31C86.2801 25.44 86.2801 25.57 86.2801 25.73L86.2701 25.72Z" fill="black"/>
<path d="M138.41 25.72H136.76V15.98H138.41V25.72Z" fill="black"/>
<path d="M74 31.53H75.66V41.26H74V31.53Z" fill="black"/>
<path d="M134.06 10.16H132.42V2.82996H134.06V10.16Z" fill="black"/>
<path d="M170.76 18.36H172.4V25.7H170.76V18.36Z" fill="black"/>
<path d="M118.38 25.72H116.73V18.38H118.38V25.72Z" fill="black"/>
<path d="M105.03 18.36H106.66V25.7H105.03V18.36Z" fill="black"/>
<path d="M97.5699 25.72H95.9199V18.39H97.5699V25.72Z" fill="black"/>
<path d="M100.56 41.2799H98.9299V33.9399H100.56V41.2799Z" fill="black"/>
<path d="M170.68 17.2V15.64H172.46V17.2H170.68Z" fill="black"/>
<path d="M118.42 15.65V17.19H116.65V15.65H118.42Z" fill="black"/>
<path d="M98.8501 32.77V31.21H100.62V32.77H98.8501Z" fill="black"/>
<path d="M106.74 15.64V17.2H104.96V15.64H106.74Z" fill="black"/>
<path d="M97.6201 17.2H95.8401V15.64H97.6201V17.2Z" fill="black"/>
<path d="M132.34 1.63997V0.0899658H134.13V1.62997H132.34V1.63997Z" fill="black"/>
<path d="M73.5 51H215.5" stroke="#868686"/>
<path d="M74.9787 67H73.348L77.0121 56.8182H78.7869L82.451 67H80.8203L77.9418 58.6676H77.8622L74.9787 67ZM75.2521 63.0128H80.5419V64.3054H75.2521V63.0128ZM86.5376 67.1491C85.9212 67.1491 85.371 66.9917 84.8871 66.6768C84.4065 66.3587 84.0286 65.9062 83.7536 65.3196C83.4818 64.7296 83.3459 64.022 83.3459 63.1967C83.3459 62.3714 83.4834 61.6655 83.7585 61.0788C84.0369 60.4922 84.4181 60.0431 84.902 59.7315C85.3859 59.42 85.9344 59.2642 86.5476 59.2642C87.0215 59.2642 87.4027 59.3438 87.6911 59.5028C87.9827 59.6586 88.2081 59.8409 88.3672 60.0497C88.5296 60.2585 88.6555 60.4425 88.745 60.6016H88.8345V56.8182H90.321V67H88.8693V65.8118H88.745C88.6555 65.9742 88.5263 66.1598 88.3572 66.3686C88.1915 66.5774 87.9628 66.7597 87.6712 66.9155C87.3795 67.0713 87.0017 67.1491 86.5376 67.1491ZM86.8658 65.8814C87.2933 65.8814 87.6546 65.7687 87.9496 65.5433C88.2479 65.3146 88.4732 64.9981 88.6257 64.5938C88.7815 64.1894 88.8594 63.7187 88.8594 63.1818C88.8594 62.6515 88.7831 62.1875 88.6307 61.7898C88.4782 61.392 88.2545 61.0821 87.9595 60.8601C87.6645 60.638 87.3 60.527 86.8658 60.527C86.4183 60.527 86.0455 60.643 85.7472 60.875C85.4489 61.107 85.2235 61.4235 85.071 61.8246C84.9219 62.2256 84.8473 62.678 84.8473 63.1818C84.8473 63.6922 84.9235 64.1513 85.076 64.5589C85.2285 64.9666 85.4538 65.2898 85.7521 65.5284C86.0537 65.7637 86.425 65.8814 86.8658 65.8814ZM98.9753 59.3636L96.2061 67H94.6152L91.8411 59.3636H93.437L95.3709 65.2401H95.4505L97.3794 59.3636H98.9753ZM102.376 67.169C101.892 67.169 101.454 67.0795 101.063 66.9006C100.672 66.7183 100.362 66.4548 100.134 66.1101C99.9083 65.7654 99.7956 65.3428 99.7956 64.8423C99.7956 64.4115 99.8785 64.0568 100.044 63.7784C100.21 63.5 100.434 63.2796 100.715 63.1172C100.997 62.9548 101.312 62.8321 101.66 62.7493C102.008 62.6664 102.363 62.6035 102.724 62.5604C103.181 62.5073 103.552 62.4643 103.838 62.4311C104.123 62.3946 104.33 62.3366 104.459 62.2571C104.588 62.1776 104.653 62.0483 104.653 61.8693V61.8345C104.653 61.4003 104.53 61.0639 104.285 60.8253C104.043 60.5866 103.682 60.4673 103.201 60.4673C102.701 60.4673 102.306 60.5784 102.018 60.8004C101.733 61.0192 101.536 61.2628 101.426 61.5312L100.029 61.2131C100.195 60.7491 100.437 60.3745 100.755 60.0895C101.077 59.8011 101.446 59.5923 101.864 59.4631C102.281 59.3305 102.721 59.2642 103.181 59.2642C103.486 59.2642 103.809 59.3007 104.151 59.3736C104.495 59.4432 104.817 59.5724 105.115 59.7614C105.417 59.9503 105.664 60.2204 105.856 60.5717C106.048 60.9197 106.144 61.3722 106.144 61.929V67H104.693V65.956H104.633C104.537 66.1482 104.393 66.3371 104.2 66.5227C104.008 66.7083 103.761 66.8625 103.46 66.9851C103.158 67.1077 102.797 67.169 102.376 67.169ZM102.699 65.9759C103.11 65.9759 103.461 65.8946 103.753 65.7322C104.048 65.5698 104.272 65.3577 104.424 65.0959C104.58 64.8307 104.658 64.5473 104.658 64.2457V63.2614C104.605 63.3144 104.502 63.3641 104.35 63.4105C104.2 63.4536 104.03 63.4917 103.838 63.5249C103.645 63.5547 103.458 63.5829 103.276 63.6094C103.093 63.6326 102.941 63.6525 102.818 63.669C102.53 63.7055 102.267 63.7668 102.028 63.853C101.793 63.9392 101.604 64.0634 101.461 64.2259C101.322 64.3849 101.252 64.5971 101.252 64.8622C101.252 65.2301 101.388 65.5085 101.66 65.6974C101.932 65.883 102.278 65.9759 102.699 65.9759ZM109.611 62.4659V67H108.124V59.3636H109.551V60.6065H109.646C109.821 60.2022 110.096 59.8774 110.471 59.6321C110.849 59.3868 111.324 59.2642 111.898 59.2642C112.418 59.2642 112.874 59.3736 113.265 59.5923C113.656 59.8078 113.959 60.1293 114.175 60.5568C114.39 60.9844 114.498 61.513 114.498 62.1428V67H113.011V62.3217C113.011 61.7682 112.867 61.3357 112.579 61.0241C112.29 60.7093 111.894 60.5518 111.391 60.5518C111.046 60.5518 110.739 60.6264 110.471 60.7756C110.206 60.9247 109.995 61.1435 109.839 61.4318C109.687 61.7169 109.611 62.0616 109.611 62.4659ZM119.708 67.1541C118.969 67.1541 118.333 66.9867 117.799 66.652C117.269 66.3139 116.861 65.8482 116.576 65.255C116.291 64.6617 116.148 63.9822 116.148 63.2166C116.148 62.4411 116.294 61.7566 116.586 61.1634C116.878 60.5668 117.289 60.1011 117.819 59.7663C118.349 59.4316 118.974 59.2642 119.693 59.2642C120.273 59.2642 120.79 59.3719 121.244 59.5874C121.698 59.7995 122.065 60.0978 122.343 60.4822C122.625 60.8667 122.792 61.3158 122.845 61.8295H121.398C121.319 61.4716 121.137 61.1634 120.852 60.9048C120.57 60.6463 120.192 60.517 119.718 60.517C119.304 60.517 118.941 60.6264 118.629 60.8452C118.321 61.0606 118.081 61.3688 117.908 61.7699C117.736 62.1676 117.65 62.6383 117.65 63.1818C117.65 63.7386 117.734 64.2192 117.903 64.6236C118.072 65.0279 118.311 65.3411 118.619 65.5632C118.931 65.7853 119.297 65.8963 119.718 65.8963C120 65.8963 120.255 65.8449 120.484 65.7422C120.716 65.6361 120.91 65.4853 121.065 65.2898C121.224 65.0942 121.335 64.8589 121.398 64.5838H122.845C122.792 65.0777 122.631 65.5185 122.363 65.9062C122.094 66.294 121.735 66.599 121.284 66.821C120.837 67.0431 120.311 67.1541 119.708 67.1541ZM124.435 67V59.3636H125.921V67H124.435ZM125.186 58.1854C124.927 58.1854 124.705 58.0992 124.519 57.9268C124.337 57.7512 124.246 57.5424 124.246 57.3004C124.246 57.0552 124.337 56.8464 124.519 56.674C124.705 56.4983 124.927 56.4105 125.186 56.4105C125.444 56.4105 125.664 56.4983 125.847 56.674C126.032 56.8464 126.125 57.0552 126.125 57.3004C126.125 57.5424 126.032 57.7512 125.847 57.9268C125.664 58.0992 125.444 58.1854 125.186 58.1854ZM129.408 62.4659V67H127.921V59.3636H129.348V60.6065H129.442C129.618 60.2022 129.893 59.8774 130.268 59.6321C130.646 59.3868 131.121 59.2642 131.695 59.2642C132.215 59.2642 132.671 59.3736 133.062 59.5923C133.453 59.8078 133.756 60.1293 133.972 60.5568C134.187 60.9844 134.295 61.513 134.295 62.1428V67H132.808V62.3217C132.808 61.7682 132.664 61.3357 132.376 61.0241C132.087 60.7093 131.691 60.5518 131.188 60.5518C130.843 60.5518 130.536 60.6264 130.268 60.7756C130.003 60.9247 129.792 61.1435 129.636 61.4318C129.484 61.7169 129.408 62.0616 129.408 62.4659ZM139.49 70.0227C138.884 70.0227 138.362 69.9432 137.924 69.7841C137.49 69.625 137.135 69.4145 136.86 69.1527C136.585 68.8909 136.379 68.6042 136.244 68.2926L137.521 67.7656C137.611 67.9115 137.73 68.0656 137.879 68.228C138.032 68.3937 138.237 68.5346 138.496 68.6506C138.758 68.7666 139.094 68.8246 139.505 68.8246C140.068 68.8246 140.534 68.687 140.902 68.4119C141.27 68.1402 141.454 67.706 141.454 67.1094V65.608H141.359C141.27 65.7704 141.141 65.951 140.972 66.1499C140.806 66.3487 140.577 66.5211 140.286 66.6669C139.994 66.8127 139.614 66.8857 139.147 66.8857C138.544 66.8857 138 66.7448 137.516 66.4631C137.036 66.178 136.655 65.7588 136.373 65.2053C136.094 64.6484 135.955 63.964 135.955 63.152C135.955 62.34 136.093 61.6439 136.368 61.0639C136.646 60.4839 137.027 60.0398 137.511 59.7315C137.995 59.42 138.544 59.2642 139.157 59.2642C139.631 59.2642 140.014 59.3438 140.305 59.5028C140.597 59.6586 140.824 59.8409 140.987 60.0497C141.152 60.2585 141.28 60.4425 141.369 60.6016H141.479V59.3636H142.935V67.169C142.935 67.8253 142.783 68.3639 142.478 68.7848C142.173 69.2057 141.76 69.5173 141.24 69.7195C140.723 69.9216 140.14 70.0227 139.49 70.0227ZM139.475 65.6527C139.903 65.6527 140.264 65.5533 140.559 65.3544C140.857 65.1522 141.083 64.8639 141.235 64.4893C141.391 64.1115 141.469 63.6591 141.469 63.1321C141.469 62.6184 141.393 62.166 141.24 61.7749C141.088 61.3838 140.864 61.0788 140.569 60.8601C140.274 60.638 139.909 60.527 139.475 60.527C139.028 60.527 138.655 60.643 138.357 60.875C138.058 61.1037 137.833 61.4152 137.68 61.8097C137.531 62.2041 137.457 62.6449 137.457 63.1321C137.457 63.6326 137.533 64.0717 137.685 64.4496C137.838 64.8274 138.063 65.1224 138.362 65.3345C138.663 65.5466 139.034 65.6527 139.475 65.6527ZM148.251 58.1406V56.8182H156.131V58.1406H152.954V67H151.423V58.1406H148.251ZM156.96 67V59.3636H158.397V60.5767H158.477C158.616 60.1657 158.861 59.8426 159.212 59.6072C159.567 59.3686 159.968 59.2493 160.415 59.2493C160.508 59.2493 160.618 59.2526 160.744 59.2592C160.873 59.2659 160.974 59.2741 161.047 59.2841V60.706C160.987 60.6894 160.881 60.6712 160.729 60.6513C160.576 60.6281 160.424 60.6165 160.271 60.6165C159.92 60.6165 159.607 60.6911 159.332 60.8402C159.06 60.986 158.844 61.1899 158.685 61.4517C158.526 61.7102 158.447 62.0052 158.447 62.3366V67H156.96ZM167.171 63.8331V59.3636H168.662V67H167.2V65.6776H167.121C166.945 66.0852 166.664 66.425 166.276 66.6967C165.891 66.9652 165.412 67.0994 164.839 67.0994C164.348 67.0994 163.914 66.9917 163.536 66.7763C163.162 66.5575 162.867 66.2344 162.651 65.8068C162.439 65.3793 162.333 64.8506 162.333 64.2209V59.3636H163.82V64.0419C163.82 64.5623 163.964 64.9766 164.252 65.2848C164.541 65.593 164.915 65.7472 165.376 65.7472C165.654 65.7472 165.931 65.6776 166.206 65.5384C166.485 65.3991 166.715 65.1887 166.897 64.907C167.083 64.6252 167.174 64.2673 167.171 63.8331ZM176.382 61.228L175.034 61.4666C174.978 61.2943 174.889 61.1302 174.766 60.9744C174.647 60.8187 174.484 60.6911 174.279 60.5916C174.073 60.4922 173.816 60.4425 173.508 60.4425C173.087 60.4425 172.736 60.5369 172.454 60.7259C172.172 60.9115 172.032 61.1518 172.032 61.4467C172.032 61.7019 172.126 61.9074 172.315 62.0632C172.504 62.219 172.809 62.3466 173.23 62.446L174.443 62.7244C175.145 62.8868 175.669 63.1371 176.014 63.4751C176.359 63.8132 176.531 64.2524 176.531 64.7926C176.531 65.25 176.398 65.6577 176.133 66.0156C175.871 66.3703 175.505 66.6487 175.034 66.8509C174.567 67.053 174.025 67.1541 173.409 67.1541C172.554 67.1541 171.856 66.9718 171.316 66.6072C170.775 66.2393 170.444 65.7173 170.321 65.0412L171.758 64.8224C171.848 65.197 172.032 65.4804 172.31 65.6726C172.588 65.8615 172.951 65.956 173.399 65.956C173.886 65.956 174.275 65.8549 174.567 65.6527C174.859 65.4472 175.005 65.197 175.005 64.902C175.005 64.6634 174.915 64.4628 174.736 64.3004C174.56 64.138 174.29 64.0154 173.926 63.9325L172.633 63.6491C171.921 63.4867 171.394 63.2282 171.052 62.8736C170.714 62.5189 170.545 62.0698 170.545 61.5263C170.545 61.0755 170.671 60.6811 170.923 60.343C171.175 60.005 171.523 59.7415 171.967 59.5526C172.411 59.3603 172.92 59.2642 173.493 59.2642C174.319 59.2642 174.968 59.4432 175.442 59.8011C175.916 60.1558 176.229 60.6314 176.382 61.228ZM181.73 59.3636V60.5568H177.559V59.3636H181.73ZM178.677 57.5341H180.164V64.7578C180.164 65.0462 180.207 65.2633 180.293 65.4091C180.379 65.5516 180.49 65.6494 180.626 65.7024C180.765 65.7521 180.916 65.777 181.079 65.777C181.198 65.777 181.302 65.7687 181.392 65.7521C181.481 65.7356 181.551 65.7223 181.601 65.7124L181.869 66.9403C181.783 66.9735 181.66 67.0066 181.501 67.0398C181.342 67.0762 181.143 67.0961 180.905 67.0994C180.514 67.1061 180.149 67.0365 179.811 66.8906C179.473 66.7448 179.199 66.5194 178.991 66.2145C178.782 65.9096 178.677 65.5268 178.677 65.0661V57.5341ZM186.583 67.1541C185.831 67.1541 185.183 66.9934 184.64 66.6719C184.099 66.3471 183.682 65.8913 183.387 65.3047C183.095 64.7147 182.949 64.0237 182.949 63.2315C182.949 62.4493 183.095 61.7599 183.387 61.1634C183.682 60.5668 184.093 60.1011 184.62 59.7663C185.15 59.4316 185.77 59.2642 186.479 59.2642C186.91 59.2642 187.328 59.3355 187.732 59.478C188.136 59.6205 188.499 59.8442 188.821 60.1491C189.142 60.4541 189.396 60.8501 189.581 61.3374C189.767 61.8213 189.86 62.4096 189.86 63.1023V63.6293H183.789V62.5156H188.403C188.403 62.1245 188.324 61.7782 188.164 61.4766C188.005 61.1716 187.782 60.9313 187.493 60.7557C187.208 60.58 186.873 60.4922 186.489 60.4922C186.071 60.4922 185.707 60.5949 185.395 60.8004C185.087 61.0026 184.848 61.2678 184.679 61.5959C184.514 61.9207 184.431 62.2737 184.431 62.6548V63.5249C184.431 64.0353 184.52 64.4695 184.699 64.8274C184.882 65.1854 185.135 65.4588 185.46 65.6477C185.785 65.8333 186.164 65.9261 186.598 65.9261C186.88 65.9261 187.137 65.8864 187.369 65.8068C187.601 65.724 187.801 65.6013 187.971 65.4389C188.14 65.2765 188.269 65.076 188.358 64.8374L189.765 65.0909C189.653 65.5052 189.45 65.8681 189.159 66.1797C188.87 66.4879 188.507 66.7282 188.07 66.9006C187.636 67.0696 187.14 67.1541 186.583 67.1541ZM194.368 67.1491C193.751 67.1491 193.201 66.9917 192.717 66.6768C192.237 66.3587 191.859 65.9062 191.584 65.3196C191.312 64.7296 191.176 64.022 191.176 63.1967C191.176 62.3714 191.314 61.6655 191.589 61.0788C191.867 60.4922 192.248 60.0431 192.732 59.7315C193.216 59.42 193.765 59.2642 194.378 59.2642C194.852 59.2642 195.233 59.3438 195.521 59.5028C195.813 59.6586 196.038 59.8409 196.197 60.0497C196.36 60.2585 196.486 60.4425 196.575 60.6016H196.665V56.8182H198.151V67H196.699V65.8118H196.575C196.486 65.9742 196.356 66.1598 196.187 66.3686C196.022 66.5774 195.793 66.7597 195.501 66.9155C195.21 67.0713 194.832 67.1491 194.368 67.1491ZM194.696 65.8814C195.123 65.8814 195.485 65.7687 195.78 65.5433C196.078 65.3146 196.303 64.9981 196.456 64.5938C196.612 64.1894 196.689 63.7187 196.689 63.1818C196.689 62.6515 196.613 62.1875 196.461 61.7898C196.308 61.392 196.085 61.0821 195.79 60.8601C195.495 60.638 195.13 60.527 194.696 60.527C194.248 60.527 193.876 60.643 193.577 60.875C193.279 61.107 193.054 61.4235 192.901 61.8246C192.752 62.2256 192.677 62.678 192.677 63.1818C192.677 63.6922 192.754 64.1513 192.906 64.5589C193.059 64.9666 193.284 65.2898 193.582 65.5284C193.884 65.7637 194.255 65.8814 194.696 65.8814ZM204.957 67H203.327L206.991 56.8182H208.765L212.43 67H210.799L207.92 58.6676H207.841L204.957 67ZM205.231 63.0128H210.52V64.3054H205.231V63.0128ZM215.436 56.8182V67H213.9V56.8182H215.436Z" fill="#868686"/>
</svg>
