<svg width="88" height="82" viewBox="0 0 88 82" fill="none" xmlns="http://www.w3.org/2000/svg">
<path d="M62.3448 27.355L43.8048 36.365L62.3448 45.835V27.355Z" stroke="black" stroke-width="2.5" stroke-linecap="round" stroke-linejoin="round"/>
<path d="M44.6549 45.825C49.9844 45.825 54.3049 41.5045 54.3049 36.175C54.3049 30.8454 49.9844 26.525 44.6549 26.525C39.3253 26.525 35.0049 30.8454 35.0049 36.175C35.0049 41.5045 39.3253 45.825 44.6549 45.825Z" stroke="black" stroke-width="2.5" stroke-linecap="round" stroke-linejoin="round"/>
<path d="M26.9648 61.4449L22.6549 66.5549L18.3448 61.4449V32.7249C18.3448 31.5049 19.3448 30.5049 20.5648 30.5049H24.7248C25.9448 30.5049 26.9448 31.5049 26.9448 32.7249V61.4449H26.9648Z" stroke="black" stroke-width="2.5" stroke-linecap="round" stroke-linejoin="round"/>
<path d="M65.3949 52.545H35.7049C34.4788 52.545 33.4849 53.5389 33.4849 54.765V62.815C33.4849 64.0411 34.4788 65.035 35.7049 65.035H65.3949C66.6209 65.035 67.6149 64.0411 67.6149 62.815V54.765C67.6149 53.5389 66.6209 52.545 65.3949 52.545Z" stroke="black" stroke-width="2.5" stroke-linecap="round" stroke-linejoin="round"/>
<path d="M39.0748 62.0549V65.0349" stroke="black" stroke-width="2.5" stroke-linecap="round" stroke-linejoin="round"/>
<path d="M44.6349 62.0549V65.0349" stroke="black" stroke-width="2.5" stroke-linecap="round" stroke-linejoin="round"/>
<path d="M50.1948 62.0549V65.0349" stroke="black" stroke-width="2.5" stroke-linecap="round" stroke-linejoin="round"/>
<path d="M55.7449 62.0549V65.0349" stroke="black" stroke-width="2.5" stroke-linecap="round" stroke-linejoin="round"/>
<path d="M61.3048 62.0549V65.0349" stroke="black" stroke-width="2.5" stroke-linecap="round" stroke-linejoin="round"/>
<path d="M83.015 5.42499H4.98496C3.31153 5.42499 1.95496 6.78157 1.95496 8.45499V73.545C1.95496 75.2184 3.31153 76.575 4.98496 76.575H83.015C84.6884 76.575 86.045 75.2184 86.045 73.545V8.45499C86.045 6.78157 84.6884 5.42499 83.015 5.42499Z" stroke="black" stroke-width="2.5" stroke-linecap="round" stroke-linejoin="round"/>
<path d="M2.30505 16.835H86.0451" stroke="black" stroke-width="2.5" stroke-linecap="round" stroke-linejoin="round"/>
<path d="M59.0648 12.535C60.0203 12.535 60.7948 11.7605 60.7948 10.805C60.7948 9.84956 60.0203 9.07501 59.0648 9.07501C58.1094 9.07501 57.3348 9.84956 57.3348 10.805C57.3348 11.7605 58.1094 12.535 59.0648 12.535Z" fill="black"/>
<path d="M67.6149 12.535C68.5703 12.535 69.3449 11.7605 69.3449 10.805C69.3449 9.84956 68.5703 9.07501 67.6149 9.07501C66.6594 9.07501 65.8849 9.84956 65.8849 10.805C65.8849 11.7605 66.6594 12.535 67.6149 12.535Z" fill="black"/>
<path d="M75.8249 12.535C76.7803 12.535 77.5548 11.7605 77.5548 10.805C77.5548 9.84956 76.7803 9.07501 75.8249 9.07501C74.8694 9.07501 74.0948 9.84956 74.0948 10.805C74.0948 11.7605 74.8694 12.535 75.8249 12.535Z" fill="black"/>
<path d="M10.295 10.805H38.585" stroke="black" stroke-width="2.5" stroke-linecap="round" stroke-linejoin="round"/>
<path d="M18.3549 38.425H26.8949" stroke="black" stroke-width="2.5" stroke-linecap="round" stroke-linejoin="round"/>
</svg>
