<svg width="94" height="82" viewBox="0 0 94 82" fill="none" xmlns="http://www.w3.org/2000/svg">
<path d="M55.925 81.155H10.285C4.825 81.155 0.375 76.705 0.375 71.245V10.755C0.375 5.295 4.825 0.845001 10.285 0.845001H70.775C76.235 0.845001 80.685 5.295 80.685 10.755V41.005C80.685 41.665 80.155 42.195 79.495 42.195C78.835 42.195 78.305 41.665 78.305 41.005V10.755C78.305 6.605 74.925 3.225 70.775 3.225H10.285C6.135 3.225 2.755 6.605 2.755 10.755V71.245C2.755 75.395 6.135 78.775 10.285 78.775H55.925C56.585 78.775 57.115 79.305 57.115 79.965C57.115 80.625 56.585 81.155 55.925 81.155Z" fill="black"/>
<path d="M13.105 13.9651C10.625 13.9651 8.60498 11.9451 8.60498 9.46512C8.60498 6.98512 10.625 4.96512 13.105 4.96512C15.585 4.96512 17.605 6.98512 17.605 9.46512C17.605 11.9451 15.585 13.9651 13.105 13.9651ZM13.105 7.33512C11.935 7.33512 10.975 8.28512 10.975 9.46512C10.975 10.6451 11.925 11.5951 13.105 11.5951C14.285 11.5951 15.235 10.6451 15.235 9.46512C15.235 8.28512 14.285 7.33512 13.105 7.33512Z" fill="black"/>
<path d="M2.27496 18.1049C1.62496 18.1049 1.08496 17.5749 1.08496 16.9249C1.08496 16.2649 1.61496 15.7349 2.26496 15.7349L78.975 15.5349C79.625 15.5349 80.165 16.0649 80.165 16.7149C80.165 17.3749 79.635 17.9049 78.985 17.9049L2.27496 18.1049Z" fill="black"/>
<path d="M35.385 64.0551C35.265 64.0551 35.145 64.0351 35.035 64.0051C34.405 63.8151 34.055 63.1451 34.255 62.5151L45.415 26.5851C45.605 25.9551 46.275 25.6051 46.905 25.8051C47.535 25.9951 47.885 26.6651 47.685 27.2951L36.525 63.2251C36.365 63.7351 35.895 64.0651 35.395 64.0651L35.385 64.0551Z" fill="black"/>
<path d="M50.1651 57.4049C49.8651 57.4049 49.5551 57.2849 49.3251 57.0549C48.8651 56.5949 48.8651 55.8349 49.3251 55.3749L60.1151 44.5849L49.2151 33.6849C48.7551 33.2249 48.7551 32.4649 49.2151 32.0049C49.6751 31.5449 50.4351 31.5449 50.8951 32.0049L62.6351 43.7449C62.8551 43.9649 62.9851 44.2649 62.9851 44.5849C62.9851 44.9049 62.8551 45.2049 62.6351 45.4249L51.0051 57.0549C50.7751 57.2849 50.4651 57.4049 50.1651 57.4049Z" fill="black"/>
<path d="M30.9051 57.4049C30.6051 57.4049 30.2951 57.2849 30.0651 57.0549L18.3251 45.3149C18.1051 45.0949 17.9751 44.7949 17.9751 44.4749C17.9751 44.1549 18.1051 43.8549 18.3251 43.6349L29.9551 32.0049C30.4151 31.5449 31.1751 31.5449 31.6351 32.0049C32.0951 32.4649 32.0951 33.2249 31.6351 33.6849L20.8451 44.4749L31.7451 55.3749C32.2051 55.8349 32.2051 56.5949 31.7451 57.0549C31.5151 57.2849 31.2051 57.4049 30.9051 57.4049Z" fill="black"/>
<path d="M82.545 81.1549H64.375C61.745 81.1549 59.595 79.0149 59.595 76.3749V61.2649C59.595 58.6349 61.735 56.4849 64.375 56.4849H82.545C85.175 56.4849 87.325 58.6249 87.325 61.2649V76.3749C87.325 79.0049 85.185 81.1549 82.545 81.1549ZM64.375 58.8649C63.055 58.8649 61.975 59.9449 61.975 61.2649V76.3749C61.975 77.6949 63.055 78.7749 64.375 78.7749H82.545C83.865 78.7749 84.945 77.6949 84.945 76.3749V61.2649C84.945 59.9449 83.865 58.8649 82.545 58.8649H64.375Z" fill="black"/>
<path d="M76.6149 66.645C76.6149 64.975 75.2649 63.615 73.5849 63.615C71.9049 63.615 70.5549 64.965 70.5549 66.645C70.5549 67.885 71.2949 68.945 72.3549 69.415V72.505C72.3549 73.215 72.9349 73.795 73.6449 73.795C74.3549 73.795 74.9349 73.215 74.9349 72.505V69.345C75.9249 68.845 76.5949 67.825 76.5949 66.645H76.6149Z" fill="black"/>
<path d="M84.095 44.375C78.845 44.375 74.585 48.645 74.585 53.885V57.365H76.965V53.885C76.965 49.945 80.165 46.745 84.105 46.745C88.045 46.745 91.245 49.945 91.245 53.885C91.245 54.545 90.715 55.075 90.055 55.075C89.395 55.075 88.865 54.545 88.865 53.885C88.865 51.255 86.725 49.125 84.105 49.125C81.485 49.125 79.345 51.265 79.345 53.885V57.365H81.725V53.885C81.725 52.565 82.795 51.495 84.115 51.495C85.435 51.495 86.505 52.565 86.505 53.885C86.505 55.855 88.105 57.445 90.065 57.445C92.025 57.445 93.625 55.845 93.625 53.885C93.625 48.635 89.355 44.375 84.115 44.375H84.095Z" fill="black"/>
</svg>
